<svg preserveAspectRatio="none" width="100%" height="100%" overflow="visible" style="display: block;" viewBox="0 0 113.601 20" fill="none" xmlns="http://www.w3.org/2000/svg">
<g id="Frame 29">
<path id="linkedin" d="M17.0392 17.0433H14.0775V12.4025C14.0775 11.2958 14.055 9.87167 12.5342 9.87167C10.99 9.87167 10.7542 11.0758 10.7542 12.3208V17.0433H7.7925V7.5H10.6375V8.80083H10.6758C11.0733 8.05083 12.04 7.25917 13.4842 7.25917C16.485 7.25917 17.04 9.23417 17.04 11.805L17.0392 17.0433ZM4.4475 6.19417C3.49417 6.19417 2.72833 5.4225 2.72833 4.47333C2.72833 3.525 3.495 2.75417 4.4475 2.75417C5.3975 2.75417 6.1675 3.525 6.1675 4.47333C6.1675 5.4225 5.39667 6.19417 4.4475 6.19417ZM5.9325 17.0433H2.9625V7.5H5.9325V17.0433ZM18.5208 0H1.47583C0.66 0 0 0.645 0 1.44083V18.5592C0 19.3558 0.66 20 1.47583 20H18.5183C19.3333 20 20 19.3558 20 18.5592V1.44083C20 0.645 19.3333 0 18.5183 0H18.5208Z" fill="var(--fill-0, #D4D4D4)"/>
<path id="youtube" d="M57.8942 1H58.0367C59.3532 1.0048 66.0238 1.05285 67.8223 1.53652C68.366 1.68414 68.8615 1.97187 69.2592 2.37095C69.6569 2.77004 69.9428 3.26651 70.0885 3.81075C70.2503 4.41934 70.364 5.22493 70.4409 6.05614L70.4569 6.22271L70.4921 6.63911L70.5049 6.80568C70.609 8.26951 70.6219 9.64045 70.6235 9.93994V10.0601C70.6219 10.3708 70.6074 11.8346 70.4921 13.3593L70.4793 13.5274L70.4649 13.694C70.3848 14.6101 70.2663 15.5198 70.0885 16.1893C69.9428 16.7335 69.6569 17.23 69.2592 17.629C68.8615 18.0281 68.366 18.3159 67.8223 18.4635C65.9645 18.9632 58.9032 18.9984 57.9246 19H57.6972C57.2023 19 55.1555 18.9904 53.0094 18.9167L52.7372 18.9071L52.5978 18.9007L52.324 18.8895L52.0501 18.8783C50.2724 18.7998 48.5795 18.6733 47.7995 18.4619C47.256 18.3144 46.7607 18.0269 46.363 17.6281C45.9653 17.2293 45.6793 16.7332 45.5333 16.1893C45.3555 15.5214 45.237 14.6101 45.157 13.694L45.1441 13.5258L45.1313 13.3593C45.0518 12.2741 45.008 11.1866 45 10.0985L45 9.9015C45.0032 9.55717 45.016 8.3672 45.1025 7.05392L45.1137 6.88896L45.1185 6.80568L45.1313 6.63911L45.1666 6.22271L45.1826 6.05614C45.2595 5.22493 45.3732 4.41774 45.5349 3.81075C45.6806 3.26651 45.9666 2.77004 46.3643 2.37095C46.762 1.97187 47.2574 1.68414 47.8011 1.53652C48.5811 1.32832 50.274 1.2002 52.0517 1.12012L52.324 1.10891L52.5994 1.0993L52.7372 1.09449L53.011 1.08328C54.5353 1.03428 56.0601 1.00705 57.5851 1.0016L57.8942 1ZM55.25 6.14103V13.8574L61.9077 10.0008L55.25 6.14103Z" fill="var(--fill-0, #D4D4D4)"/>
<path id="x" d="M109.782 1.875H112.538L106.516 8.75833L113.601 18.125H108.053L103.708 12.4442L98.7368 18.125H95.9785L102.42 10.7625L95.6235 1.875H101.312L105.239 7.0675L109.782 1.875ZM108.814 16.475H110.342L100.482 3.43833H98.8426L108.814 16.475Z" fill="var(--fill-0, #D4D4D4)"/>
</g>
</svg>
