<svg width="96" height="96" viewBox="0 0 96 96" fill="none" xmlns="http://www.w3.org/2000/svg">
<path d="M62 74V72H32V74H62Z" fill="black"/>
<path d="M62 72V70H60V72H62Z" fill="black"/>
<path d="M64 70V68H62V70H64Z" fill="black"/>
<path d="M62 76V74H60V76H62Z" fill="black"/>
<path d="M72 70V68H70V70H72Z" fill="black"/>
<path d="M76 56V54H74V56H76Z" fill="black"/>
<path d="M78 65.9801V63.9801H76V65.9801H78Z" fill="black"/>
<path d="M74 54V52H60V54H74Z" fill="black"/>
<path d="M78 58V56H76V58H78Z" fill="black"/>
<path d="M76 64V58H74V64H76Z" fill="black"/>
<path d="M80 71.98V58H78V71.98H80Z" fill="black"/>
<path d="M70 68V66H64V68H70Z" fill="black"/>
<path d="M78.0397 74V72H73.9797V74H78.0397Z" fill="black"/>
<path d="M70 76V78H72V76H70Z" fill="black"/>
<path d="M62 76V78H64V76H62Z" fill="black"/>
<path d="M64 78V80H70V78H64Z" fill="black"/>
<path d="M72 76H74V70H72V76Z" fill="black"/>
<path d="M32 74V76H34V74H32Z" fill="black"/>
<path d="M30 76V78H32V76H30Z" fill="black"/>
<path d="M32 70V72H34V70H32Z" fill="black"/>
<path d="M22 76V78H24V76H22Z" fill="black"/>
<path d="M24 78V80H30V78H24Z" fill="black"/>
<path d="M24 70V68H22V70H24Z" fill="black"/>
<path d="M20 74V72H18V74H20Z" fill="black"/>
<path d="M18 72V58H16V72H18Z" fill="black"/>
<path d="M20 58.02V54H18V58.02H20Z" fill="black"/>
<path d="M22 64V58H20V64H22Z" fill="black"/>
<path d="M22 54.02V50H20V54.02H22Z" fill="black"/>
<path d="M24 50.02V46H22V50.02H24Z" fill="black"/>
<path d="M28 42H32V40H28V42Z" fill="black"/>
<path d="M48 40H52V38H48V40Z" fill="black"/>
<path d="M52 42H56V40H52V42Z" fill="black"/>
<path d="M56 44H60V42H56V44Z" fill="black"/>
<path d="M60 46H64V44H60V46Z" fill="black"/>
<path d="M64 48H68V46H64V48Z" fill="black"/>
<path d="M68 50H70V48H68V50Z" fill="black"/>
<path d="M70 52H72V50H70V52Z" fill="black"/>
<path d="M58 52H60V50H58V52Z" fill="black"/>
<path d="M58 46H60V44H58V46Z" fill="black"/>
<path d="M56 50H58V46H56V50Z" fill="black"/>
<path d="M32 40H48V38H32V40Z" fill="black"/>
<path d="M30 54H50V52H30V54Z" fill="black"/>
<path d="M26 46V44H24V46H26Z" fill="black"/>
<path d="M20 66V64H18V66H20Z" fill="black"/>
<path d="M34 48V46H29.98V48H34Z" fill="black"/>
<path d="M45.98 36V34H39.98V36H45.98Z" fill="black"/>
<path d="M45.98 30V28H39.98V30H45.98Z" fill="black"/>
<path d="M45.98 18V16H39.98V18H45.98Z" fill="black"/>
<path d="M45.98 24V22H39.98V24H45.98Z" fill="black"/>
<path d="M39.98 26V24H35.98V26H39.98Z" fill="black"/>
<path d="M49.9802 26V24H45.9802V26H49.9802Z" fill="black"/>
<path d="M39.98 20V18H33.98V20H39.98Z" fill="black"/>
<path d="M51.98 20V18H45.98V20H51.98Z" fill="black"/>
<path d="M46 46V44H34V46H46Z" fill="black"/>
<path d="M52 52V48H50V52H52Z" fill="black"/>
<path d="M30 52V48H28V52H30Z" fill="black"/>
<path d="M28 44V42H26V44H28Z" fill="black"/>
<path d="M39.98 38V36H37.98V38H39.98Z" fill="black"/>
<path d="M39.98 32V30H37.98V32H39.98Z" fill="black"/>
<path d="M47.98 38V36H45.98V38H47.98Z" fill="black"/>
<path d="M47.98 32V30H45.98V32H47.98Z" fill="black"/>
<path d="M52 28V26H50V28H52Z" fill="black"/>
<path d="M53.98 22V20H51.98V22H53.98Z" fill="black"/>
<path d="M55.9802 24V22H53.9802V24H55.9802Z" fill="black"/>
<path d="M31.9802 24V22H29.9802V24H31.9802Z" fill="black"/>
<path d="M33.98 22V20H31.98V22H33.98Z" fill="black"/>
<path d="M35.98 28V26H33.98V28H35.98Z" fill="black"/>
<path d="M50 48V46H46V48H50Z" fill="black"/>
<path d="M32 70V68H30V70H32Z" fill="black"/>
<path d="M28 72V70H26V72H28Z" fill="black"/>
<path d="M28 76V74H26V76H28Z" fill="black"/>
<path d="M30 74V72H28V74H30Z" fill="black"/>
<path d="M26 74V72H24V74H26Z" fill="black"/>
<path d="M68 72V70H66V72H68Z" fill="black"/>
<path d="M68 76V74H66V76H68Z" fill="black"/>
<path d="M70 74V72H68V74H70Z" fill="black"/>
<path d="M66 74V72H64V74H66Z" fill="black"/>
<path d="M30 68V66H24V68H30Z" fill="black"/>
<path d="M42 60V58H34V60H42Z" fill="black"/>
<path d="M22 70H20V76H22V70Z" fill="black"/>
</svg>
