<svg width="96" height="96" viewBox="0 0 96 96" fill="none" xmlns="http://www.w3.org/2000/svg">
<g clip-path="url(#clip0)">
<path d="M79.9996 78L79.9996 16H77.9996L77.9996 78H79.9996Z" fill="black"/>
<path d="M32.0008 77.9986V73.9986H30.0008V77.9986H32.0008Z" fill="black"/>
<path d="M44.0008 77.9986V73.9986H42.0008V77.9986H44.0008Z" fill="black"/>
<path d="M56.0008 77.9986V73.9986H54.0008V77.9986H56.0008Z" fill="black"/>
<path d="M68.0008 77.9986V73.9986H66.0008V77.9986H68.0008Z" fill="black"/>
<path d="M78 18V16H76V18H78Z" fill="black"/>
<path d="M76 20V18H74V20H76Z" fill="black"/>
<path d="M74 22V20H72V22H74Z" fill="black"/>
<path d="M72 24V22H70V24H72Z" fill="black"/>
<path d="M70 26V24H68V26H70Z" fill="black"/>
<path d="M68 28V26H66V28H68Z" fill="black"/>
<path d="M66 30V28H64V30H66Z" fill="black"/>
<path d="M64 32V30H62V32H64Z" fill="black"/>
<path d="M62 34V32H60V34H62Z" fill="black"/>
<path d="M60 36V34H58V36H60Z" fill="black"/>
<path d="M58 38V36H56V38H58Z" fill="black"/>
<path d="M56 40V38H54V40H56Z" fill="black"/>
<path d="M54 42V40H52V42H54Z" fill="black"/>
<path d="M52 44V42H50V44H52Z" fill="black"/>
<path d="M50 46V44H48V46H50Z" fill="black"/>
<path d="M48 48V46H46V48H48Z" fill="black"/>
<path d="M46 50V48H44V50H46Z" fill="black"/>
<path d="M44 52V50H42V52H44Z" fill="black"/>
<path d="M42 54V52H40V54H42Z" fill="black"/>
<path d="M40 56V54H38V56H40Z" fill="black"/>
<path d="M38 58V56H36V58H38Z" fill="black"/>
<path d="M36 60V58H34V60H36Z" fill="black"/>
<path d="M34 62V60H32V62H34Z" fill="black"/>
<path d="M32 64V62H30V64H32Z" fill="black"/>
<path d="M30 66V64H28V66H30Z" fill="black"/>
<path d="M28 68V66H26V68H28Z" fill="black"/>
<path d="M26 70V68H24V70H26Z" fill="black"/>
<path d="M24 72V70H22V72H24Z" fill="black"/>
<path d="M22 74V72H20V74H22Z" fill="black"/>
<path d="M20 76V74H18V76H20Z" fill="black"/>
<path d="M18 78V76H16V78H18Z" fill="black"/>
<path d="M78 78H16V80H78V78Z" fill="black"/>
<path d="M68.0012 65.9988V43.9988H66.0012V65.9988H68.0012Z" fill="black"/>
<path d="M66 46V44H64V46H66Z" fill="black"/>
<path d="M64 48V46H62V48H64Z" fill="black"/>
<path d="M62 50V48H60V50H62Z" fill="black"/>
<path d="M60 52V50H58V52H60Z" fill="black"/>
<path d="M58 54V52H56V54H58Z" fill="black"/>
<path d="M56 56V54H54V56H56Z" fill="black"/>
<path d="M54 58V56H52V58H54Z" fill="black"/>
<path d="M52 60V58H50V60H52Z" fill="black"/>
<path d="M50 62V60H48V62H50Z" fill="black"/>
<path d="M48 64V62H46V64H48Z" fill="black"/>
<path d="M46 66V64H44V66H46Z" fill="black"/>
<path d="M66 66H44V68H66V66Z" fill="black"/>
</g>
<defs>
<clipPath id="clip0">
<rect width="64" height="64" fill="white" transform="translate(16 16)"/>
</clipPath>
</defs>
</svg>
