<svg width="96" height="96" viewBox="0 0 96 96" fill="none" xmlns="http://www.w3.org/2000/svg">
<path d="M18 34.02H16V70.02H18V34.02Z" fill="black"/>
<path d="M80 34.02H78V70.02H80V34.02Z" fill="black"/>
<path d="M77.98 72V70H18V72H77.98Z" fill="black"/>
<path d="M78 34.02V32.02L18.02 32.02V34.02H78Z" fill="black"/>
<path d="M68 28.02V26.02H58V28.02H68Z" fill="black"/>
<path d="M32 40V38H22V40H32Z" fill="black"/>
<path d="M54 40.02V38.02H42V40.02H54Z" fill="black"/>
<path d="M40 42H42V40H40V42Z" fill="black"/>
<path d="M38 44H40V42H38V44Z" fill="black"/>
<path d="M36 46H38V44H36V46Z" fill="black"/>
<path d="M40 62V64H42V62H40Z" fill="black"/>
<path d="M38 60.02V62.02H40V60.02H38Z" fill="black"/>
<path d="M36 58.02V60.02H38V58.02H36Z" fill="black"/>
<path d="M56 62H54V64H56V62Z" fill="black"/>
<path d="M58 60H56V62H58V60Z" fill="black"/>
<path d="M60 58H58V60H60V58Z" fill="black"/>
<path d="M56 42.02V40.02H54V42.02H56Z" fill="black"/>
<path d="M58 44.02V42.02H56V44.02H58Z" fill="black"/>
<path d="M59.98 46.02V44.02H57.98V46.02H59.98Z" fill="black"/>
<path d="M54 66V64H42V66H54Z" fill="black"/>
<path d="M34 58H36V46H34V58Z" fill="black"/>
<path d="M60 58H62V46H60V58Z" fill="black"/>
<path d="M58 32.02V28.02H56V32.02H58Z" fill="black"/>
<path d="M70 32.02V28.02H68V32.02H70Z" fill="black"/>
</svg>
