<svg width="96" height="96" viewBox="0 0 96 96" fill="none" xmlns="http://www.w3.org/2000/svg">
<path d="M32 41V39H26V41H32Z" fill="black"/>
<path d="M35.98 51H37.98V45H35.98V51Z" fill="black"/>
<path d="M20 51H22V45H20V51Z" fill="black"/>
<path d="M24 45V43H22V45H24Z" fill="black"/>
<path d="M26 43V41H24V43H26Z" fill="black"/>
<path d="M36 45V43H34V45H36Z" fill="black"/>
<path d="M34 43V41H32V43H34Z" fill="black"/>
<path d="M26 55V57H32V55H26Z" fill="black"/>
<path d="M34 51V53H36V51H34Z" fill="black"/>
<path d="M32 53V55H34V53H32Z" fill="black"/>
<path d="M22 51V53H24V51H22Z" fill="black"/>
<path d="M24 53V55H26V53H24Z" fill="black"/>
<path d="M74 64V62H60V64H74Z" fill="black"/>
<path d="M74 78H76V64H74V78Z" fill="black"/>
<path d="M58 78H60V64H58V78Z" fill="black"/>
<path d="M60 78V80H74V78H60Z" fill="black"/>
<path d="M74 41V39H60V41H74Z" fill="black"/>
<path d="M74 55H76V41H74V55Z" fill="black"/>
<path d="M58 55H60V41H58V55Z" fill="black"/>
<path d="M60 55V57H74V55H60Z" fill="black"/>
<path d="M74 18V16H60V18H74Z" fill="black"/>
<path d="M74 32H76V18H74V32Z" fill="black"/>
<path d="M58 32H60V18H58V32Z" fill="black"/>
<path d="M60 32V34H74V32H60Z" fill="black"/>
<path d="M56 70V72H58V70H56Z" fill="black"/>
<path d="M54 68V70H56V68H54Z" fill="black"/>
<path d="M52 66V68H54V66H52Z" fill="black"/>
<path d="M50 64V66H52V64H50Z" fill="black"/>
<path d="M48 62V64H50V62H48Z" fill="black"/>
<path d="M52 30H50V32H52V30Z" fill="black"/>
<path d="M50 32H48V34H50V32Z" fill="black"/>
<path d="M54 28H52V30H54V28Z" fill="black"/>
<path d="M56 26H54V28H56V26Z" fill="black"/>
<path d="M58 24H56V26H58V24Z" fill="black"/>
<path d="M38 47V49H58V47H38Z" fill="black"/>
<path d="M48 34H46V62H48V34Z" fill="black"/>
</svg>
