<svg width="96" height="96" viewBox="0 0 96 96" fill="none" xmlns="http://www.w3.org/2000/svg">
<path d="M57.98 56V54H25.98V56H57.98Z" fill="black"/>
<path d="M52 62V60H32V62H52Z" fill="black"/>
<path d="M52 74V72H32V74H52Z" fill="black"/>
<path d="M57.98 80V78H25.98V80H57.98Z" fill="black"/>
<path d="M20 62H18V72H20V62Z" fill="black"/>
<path d="M26 56H24V78H26V56Z" fill="black"/>
<path d="M44 18H42V38H44V18Z" fill="black"/>
<path d="M78 18H76V38H78V18Z" fill="black"/>
<path d="M76 40V38H60V40H76Z" fill="black"/>
<path d="M76 18V16L44 16V18H76Z" fill="black"/>
<path d="M50 40V38H44V40H50Z" fill="black"/>
<path d="M24 62V60H20V62H24Z" fill="black"/>
<path d="M24 74V72H20V74H24Z" fill="black"/>
<path d="M63.98 72H65.98V62H63.98V72Z" fill="black"/>
<path d="M58 78H60V56H58V78Z" fill="black"/>
<path d="M29.98 72H31.98V62H29.98V72Z" fill="black"/>
<path d="M35.98 70H37.98V64H35.98V70Z" fill="black"/>
<path d="M69.98 28H71.98V26H69.98V28Z" fill="black"/>
<path d="M68 30H70V28H68V30Z" fill="black"/>
<path d="M59.98 28H61.98V26H59.98V28Z" fill="black"/>
<path d="M58 30H60V28H58V30Z" fill="black"/>
<path d="M49.98 28H51.98V26H49.98V28Z" fill="black"/>
<path d="M47.98 30H49.98V28H47.98V30Z" fill="black"/>
<path d="M45.98 70H47.98V64H45.98V70Z" fill="black"/>
<path d="M51.98 72H53.98V62H51.98V72Z" fill="black"/>
<path d="M60 72V74H64V72H60Z" fill="black"/>
<path d="M60 60V62H64V60H60Z" fill="black"/>
<path d="M57.98 44V42H55.98V44H57.98Z" fill="black"/>
<path d="M59.98 42V40H57.98V42H59.98Z" fill="black"/>
<path d="M55.98 46V44H53.98V46H55.98Z" fill="black"/>
<path d="M53.98 48V46H51.98V48H53.98Z" fill="black"/>
<path d="M49.98 54V52H47.98V54H49.98Z" fill="black"/>
<path d="M35.98 54V52H33.98V54H35.98Z" fill="black"/>
<path d="M52 40H50V50H52V40Z" fill="black"/>
<path d="M47.98 52V50H35.98V52H47.98Z" fill="black"/>
<path d="M40.98 51H42.98V46H40.98V51Z" fill="black"/>
</svg>
