<svg width="96" height="96" viewBox="0 0 96 96" fill="none" xmlns="http://www.w3.org/2000/svg">
<path d="M20 34.02H18V46.02H20V34.02Z" fill="black"/>
<path d="M30 36.02H28V46.02H30V36.02Z" fill="black"/>
<path d="M27.98 36.02V34.02H19.98V36.02H27.98Z" fill="black"/>
<path d="M27.98 46.02V44.02H19.98V46.02H27.98Z" fill="black"/>
<path d="M36 50.02H34V60.02H36V50.02Z" fill="black"/>
<path d="M45.98 52.02H43.98V60.02H45.98V52.02Z" fill="black"/>
<path d="M72.98 30.02H70.98V50.02H72.98V30.02Z" fill="black"/>
<path d="M65.98 57V55H45.98V57H65.98Z" fill="black"/>
<path d="M25 46.02H23V66.02H25V46.02Z" fill="black"/>
<path d="M45.98 52.02V50.02H35.98V52.02H45.98Z" fill="black"/>
<path d="M57.98 36V34H53.98V36H57.98Z" fill="black"/>
<path d="M57.98 46V44H53.98V46H57.98Z" fill="black"/>
<path d="M59.98 42H61.98V38H59.98V42Z" fill="black"/>
<path d="M50 42H52V38H50V42Z" fill="black"/>
<path d="M45.98 62.02V60.02H35.98V62.02H45.98Z" fill="black"/>
<path d="M67.98 50.02H65.98V62.02H67.98V50.02Z" fill="black"/>
<path d="M77.98 50.02H75.98V62.02H77.98V50.02Z" fill="black"/>
<path d="M75.98 52V50H67.98V52H75.98Z" fill="black"/>
<path d="M76 62V60H68V62H76Z" fill="black"/>
<path d="M67.98 18.02H65.98V30.02H67.98V18.02Z" fill="black"/>
<path d="M77.98 18.02H75.98V30.02H77.98V18.02Z" fill="black"/>
<path d="M75.98 20.02V18.02H67.98V20.02H75.98Z" fill="black"/>
<path d="M75.98 30.02V28.02H67.98V30.02H75.98Z" fill="black"/>
<path d="M20 68H18V76H20V68Z" fill="black"/>
<path d="M30 68H28V78H30V68Z" fill="black"/>
<path d="M28 68.02V66.02H18V68.02H28Z" fill="black"/>
<path d="M30 68.02V66.02H28V68.02H30Z" fill="black"/>
<path d="M32 66.02V64.02H30V66.02H32Z" fill="black"/>
<path d="M34 64.02V62.02H32V64.02H34Z" fill="black"/>
<path d="M53.98 38V36H51.98V38H53.98Z" fill="black"/>
<path d="M53.98 44V42H51.98V44H53.98Z" fill="black"/>
<path d="M59.98 38V36H57.98V38H59.98Z" fill="black"/>
<path d="M59.98 44V42H57.98V44H59.98Z" fill="black"/>
<path d="M58 68V66H54V68H58Z" fill="black"/>
<path d="M58 78V76H54V78H58Z" fill="black"/>
<path d="M59.98 74.02H61.98V70.02H59.98V74.02Z" fill="black"/>
<path d="M50 74.02H52V70.02H50V74.02Z" fill="black"/>
<path d="M54 70V68H52V70H54Z" fill="black"/>
<path d="M54 76V74H52V76H54Z" fill="black"/>
<path d="M60 70V68H58V70H60Z" fill="black"/>
<path d="M60 76V74H58V76H60Z" fill="black"/>
<path d="M36 62.02V60.02H34V62.02H36Z" fill="black"/>
<path d="M29.98 36.02V34.02H27.98V36.02H29.98Z" fill="black"/>
<path d="M31.98 34.02V32.02H29.98V34.02H31.98Z" fill="black"/>
<path d="M33.98 32.02V30.02H31.98V32.02H33.98Z" fill="black"/>
<path d="M35.98 30.02V28.02H33.98V30.02H35.98Z" fill="black"/>
<path d="M28 78.02V76.02H18V78.02H28Z" fill="black"/>
<path d="M36 18.02H34V30.02H36V18.02Z" fill="black"/>
<path d="M45.98 18.02H43.98V30.02H45.98V18.02Z" fill="black"/>
<path d="M43.98 20.02V18.02H35.98V20.02H43.98Z" fill="black"/>
<path d="M43.98 30.02V28.02H35.98V30.02H43.98Z" fill="black"/>
<path d="M54 76V74H52V76H54Z" fill="black"/>
<path d="M54 76V74H52V76H54Z" fill="black"/>
</svg>
