<svg fill="none" height="96" viewBox="0 0 96 96" width="96" xmlns="http://www.w3.org/2000/svg"><g fill="#000"><path d="m24 47.5h2v-7h-2z"/><path d="m33 47.5h2v-7h-2z"/><path d="m26 49.5h7v-2h-7z"/><path d="m26 40.5h7v-2h-7z"/><path d="m61 47.5h2v-7h-2z"/><path d="m69.98 47.5h2v-7h-2z"/><path d="m62.98 49.5h7v-2h-7z"/><path d="m62.98 40.5h7v-2h-7z"/><path d="m42.5 47.5h2v-7h-2z"/><path d="m51.5 47.5h2v-7h-2z"/><path d="m44.5 49.5h7v-2h-7z"/><path d="m44.5 40.5h7v-2h-7z"/><path d="m20 72h2v-6h-2z"/><path d="m29 72h2v-6h-2z"/><path d="m38 72h2v-6h-2z"/><path d="m47 72h2v-6h-2z"/><path d="m56 72h2v-6h-2z"/><path d="m65 72h2v-6h-2z"/><path d="m74 72h2v-6h-2z"/><path d="m78 24h-60v2h60z"/><path d="m78 62h-60v2h60z"/><path d="m16 26v36h2v-36z"/><path d="m78 26v36h2v-36z"/></g></svg>