<svg width="96" height="96" viewBox="0 0 96 96" fill="none" xmlns="http://www.w3.org/2000/svg">
<path d="M26.02 26.02H24.02V70H26.02V26.02Z" fill="black"/>
<path d="M38.02 38.02H36.02V58.02H38.02V38.02Z" fill="black"/>
<path d="M60 38.02H58V58.02H60V38.02Z" fill="black"/>
<path d="M58 38.02V36.02H38V38.02H58Z" fill="black"/>
<path d="M58 60.02V58.02H38V60.02H58Z" fill="black"/>
<path d="M37.02 16.02H35.02V22.02H37.02V16.02Z" fill="black"/>
<path d="M43.02 16.02H41.02V22.02H43.02V16.02Z" fill="black"/>
<path d="M49.02 16.02H47.02V22.02H49.02V16.02Z" fill="black"/>
<path d="M55.02 16.02H53.02V22.02H55.02V16.02Z" fill="black"/>
<path d="M61 16.02H59V22.02H61V16.02Z" fill="black"/>
<path d="M37.02 74H35.02V80H37.02V74Z" fill="black"/>
<path d="M43.02 74H41.02V80H43.02V74Z" fill="black"/>
<path d="M49.02 74H47.02V80H49.02V74Z" fill="black"/>
<path d="M55.02 74H53.02V80H55.02V74Z" fill="black"/>
<path d="M61 74H59V80H61V74Z" fill="black"/>
<path d="M22.02 37.02V35.02H16.02V37.02H22.02Z" fill="black"/>
<path d="M22.02 43.02V41.02H16.02V43.02H22.02Z" fill="black"/>
<path d="M22.02 49.02V47.02H16.02V49.02H22.02Z" fill="black"/>
<path d="M22 55.02V53.02H16V55.02H22Z" fill="black"/>
<path d="M22.02 61V59H16.02V61H22.02Z" fill="black"/>
<path d="M80 37.02V35.02H74V37.02H80Z" fill="black"/>
<path d="M80 43.02V41.02H74V43.02H80Z" fill="black"/>
<path d="M80 49.02V47.02H74V49.02H80Z" fill="black"/>
<path d="M79.98 55.02V53.02H73.98V55.02H79.98Z" fill="black"/>
<path d="M80 61V59H74V61H80Z" fill="black"/>
<path d="M72 26.02H70V70H72V26.02Z" fill="black"/>
<path d="M70 26.02V24.02L26.02 24.02V26.02L70 26.02Z" fill="black"/>
<path d="M70 72.02V70.02H26.02V72.02H70Z" fill="black"/>
</svg>
