<svg width="96" height="96" viewBox="0 0 96 96" fill="none" xmlns="http://www.w3.org/2000/svg">
<path d="M30 32H32V30H30V32Z" fill="black"/>
<path d="M32 34H34V32H32V34Z" fill="black"/>
<path d="M38 32H40V30H38V32Z" fill="black"/>
<path d="M40 34H42V32H40V34Z" fill="black"/>
<path d="M46 32H48V30H46V32Z" fill="black"/>
<path d="M48 34H50V32H48V34Z" fill="black"/>
<path d="M54 32H56V30H54V32Z" fill="black"/>
<path d="M56 34H58V32H56V34Z" fill="black"/>
<path d="M62 32H64V30H62V32Z" fill="black"/>
<path d="M64 34H66V32H64V34Z" fill="black"/>
<path d="M30 40H32V38H30V40Z" fill="black"/>
<path d="M32 42H34V40H32V42Z" fill="black"/>
<path d="M38 40H40V38H38V40Z" fill="black"/>
<path d="M40 42H42V40H40V42Z" fill="black"/>
<path d="M46 40H48V38H46V40Z" fill="black"/>
<path d="M48 42H50V40H48V42Z" fill="black"/>
<path d="M54 40H56V38H54V40Z" fill="black"/>
<path d="M56 42H58V40H56V42Z" fill="black"/>
<path d="M62 40H64V38H62V40Z" fill="black"/>
<path d="M64 42H66V40H64V42Z" fill="black"/>
<path d="M30 48H32V46H30V48Z" fill="black"/>
<path d="M32 50H34V48H32V50Z" fill="black"/>
<path d="M38 48H40V46H38V48Z" fill="black"/>
<path d="M40 50H42V48H40V50Z" fill="black"/>
<path d="M46 48H48V46H46V48Z" fill="black"/>
<path d="M48 50H50V48H48V50Z" fill="black"/>
<path d="M54 48H56V46H54V48Z" fill="black"/>
<path d="M56 50H58V48H56V50Z" fill="black"/>
<path d="M62 48H64V46H62V48Z" fill="black"/>
<path d="M64 50H66V48H64V50Z" fill="black"/>
<path d="M30 56.02H32V54.02H30V56.02Z" fill="black"/>
<path d="M32 58.02H34V56.02H32V58.02Z" fill="black"/>
<path d="M38 56.02H40V54.02H38V56.02Z" fill="black"/>
<path d="M40 58.02H42V56.02H40V58.02Z" fill="black"/>
<path d="M46 56.02H48V54.02H46V56.02Z" fill="black"/>
<path d="M48 58.02H50V56.02H48V58.02Z" fill="black"/>
<path d="M54 56.02H56V54.02H54V56.02Z" fill="black"/>
<path d="M56 58.02H58V56.02H56V58.02Z" fill="black"/>
<path d="M62 56.02H64V54.02H62V56.02Z" fill="black"/>
<path d="M64 58.02H66V56.02H64V58.02Z" fill="black"/>
<path d="M30 64.02H32V62.02H30V64.02Z" fill="black"/>
<path d="M32 66.02H34V64.02H32V66.02Z" fill="black"/>
<path d="M38 64.02H40V62.02H38V64.02Z" fill="black"/>
<path d="M40 66.02H42V64.02H40V66.02Z" fill="black"/>
<path d="M46 64.02H48V62.02H46V64.02Z" fill="black"/>
<path d="M48 66.02H50V64.02H48V66.02Z" fill="black"/>
<path d="M54 64.02H56V62.02H54V64.02Z" fill="black"/>
<path d="M56 66.02H58V64.02H56V66.02Z" fill="black"/>
<path d="M62 64.02H64V62.02H62V64.02Z" fill="black"/>
<path d="M64 66.02H66V64.02H64V66.02Z" fill="black"/>
<path d="M72 22H24V24H72V22Z" fill="black"/>
<path d="M72 72H24V74H72V72Z" fill="black"/>
<path d="M22 24.02L22 72H24L24 24.02H22Z" fill="black"/>
<path d="M72 24.02V72H74V24.02H72Z" fill="black"/>
</svg>
