<svg width="96" height="96" viewBox="0 0 96 96" fill="none" xmlns="http://www.w3.org/2000/svg">
<path d="M76.02 42V46H78.02V42H76.02Z" fill="black"/>
<path d="M72.02 48H76.02V46H72.02V48Z" fill="black"/>
<path d="M74.02 42H76.02V40H74.02V42Z" fill="black"/>
<path d="M70 46H72V44H70V46Z" fill="black"/>
<path d="M24 53.98V49.98H22V53.98H24Z" fill="black"/>
<path d="M28 48H24V50H28V48Z" fill="black"/>
<path d="M26 54H24V56H26V54Z" fill="black"/>
<path d="M66 21.98H68V19.98H66V21.98Z" fill="black"/>
<path d="M68.02 23.96H70.02V21.96H68.02V23.96Z" fill="black"/>
<path d="M66 25.98H68V23.98H66V25.98Z" fill="black"/>
<path d="M22.02 74H24.02V72H22.02V74Z" fill="black"/>
<path d="M74.02 62.04H72.02V64.04H74.02V62.04Z" fill="black"/>
<path d="M18 74H20V72H18V74Z" fill="black"/>
<path d="M20.02 76.02H22.02V74.02H20.02V76.02Z" fill="black"/>
<path d="M27.98 28H29.98V26H27.98V28Z" fill="black"/>
<path d="M30.02 26H32.02V24H30.02V26Z" fill="black"/>
<path d="M22 30H28V28H22V30Z" fill="black"/>
<path d="M22 18H24V16H22V18Z" fill="black"/>
<path d="M22 18H20V20H22V18Z" fill="black"/>
<path d="M22 26H20V28H22V26Z" fill="black"/>
<path d="M18 20V26H20V20H18Z" fill="black"/>
<path d="M62.02 60H68V58H62.02V60Z" fill="black"/>
<path d="M68.02 62H72.02V60H68.02V62Z" fill="black"/>
<path d="M58.02 62H62.02V60H58.02V62Z" fill="black"/>
<path d="M76.04 68.04V74.02H78.04V68.04H76.04Z" fill="black"/>
<path d="M74.04 64.02V68.02H76.04V64.02H74.04Z" fill="black"/>
<path d="M56.04 80.02H58.04V78.02H56.04V80.02Z" fill="black"/>
<path d="M56.04 62.04V64.04H58.04V62.04H56.04Z" fill="black"/>
<path d="M54.02 74.04V68.06H52.02V74.04H54.02Z" fill="black"/>
<path d="M56.02 68.04V64.04H54.02V68.04H56.02Z" fill="black"/>
<path d="M56 78.02V74.02H54V78.02H56Z" fill="black"/>
<path d="M52 26H46V28H52V26Z" fill="black"/>
<path d="M54 32H44V34H54V32Z" fill="black"/>
<path d="M56 36H40V38H56V36Z" fill="black"/>
<path d="M58 40H38V42H58V40Z" fill="black"/>
<path d="M56 44H36V46H56V44Z" fill="black"/>
<path d="M52 48H36V50H52V48Z" fill="black"/>
<path d="M48 52H36V54H48V52Z" fill="black"/>
<path d="M46 56H36V58H46V56Z" fill="black"/>
<path d="M44 64.02H36V66.02H44V64.02Z" fill="black"/>
<path d="M42 68H38V70H42V68Z" fill="black"/>
<path d="M44 60H36V62H44V60Z" fill="black"/>
<path d="M46 28H42V30H46V28Z" fill="black"/>
<path d="M38.02 31.98H42.02V29.98H38.02V31.98Z" fill="black"/>
<path d="M38 32H36V36H38V32Z" fill="black"/>
<path d="M36 36H34V40H36V36Z" fill="black"/>
<path d="M34 40H32V50H34V40Z" fill="black"/>
<path d="M34 50H32V68H34V50Z" fill="black"/>
<path d="M44 72H36V74H44V72Z" fill="black"/>
<path d="M46 68H44V72H46V68Z" fill="black"/>
<path d="M36 68H34V72H36V68Z" fill="black"/>
<path d="M48 60H46V68H48V60Z" fill="black"/>
<path d="M50 56H48V60H50V56Z" fill="black"/>
<path d="M50.02 56H52.02V54H50.02V56Z" fill="black"/>
<path d="M52.02 54H54.02V52H52.02V54Z" fill="black"/>
<path d="M54.02 52H56.02V50H54.02V52Z" fill="black"/>
<path d="M56.02 50H58.02V48H56.02V50Z" fill="black"/>
<path d="M58.02 48H60.02V44H58.02V48Z" fill="black"/>
<path d="M62 36H60V44H62V36Z" fill="black"/>
<path d="M60 32H58V36H60V32Z" fill="black"/>
<path d="M56.02 31.98H58.02V29.98H56.02V31.98Z" fill="black"/>
<path d="M56 28H52V30H56V28Z" fill="black"/>
</svg>
