<svg width="96" height="96" viewBox="0 0 96 96" fill="none" xmlns="http://www.w3.org/2000/svg">
<path d="M38 22V20H30V22H38Z" fill="black"/>
<path d="M42 23.96V21.96H38V23.96H42Z" fill="black"/>
<path d="M44 26V24H42V26H44Z" fill="black"/>
<path d="M18 34H16V44H18V34Z" fill="black"/>
<path d="M80 34H78V44H80V34Z" fill="black"/>
<path d="M18 48H20V44H18V48Z" fill="black"/>
<path d="M20 50H22V48H20V50Z" fill="black"/>
<path d="M22 52H24V50H22V52Z" fill="black"/>
<path d="M24 54H26V52H24V54Z" fill="black"/>
<path d="M26 56H28V54H26V56Z" fill="black"/>
<path d="M28 58H30V56H28V58Z" fill="black"/>
<path d="M24 24V26H26V24H24Z" fill="black"/>
<path d="M26 21.96V23.96H30V21.96H26Z" fill="black"/>
<path d="M22 26V28H24V26H22Z" fill="black"/>
<path d="M20 28V30H22V28H20Z" fill="black"/>
<path d="M18 30V34H20V30H18Z" fill="black"/>
<path d="M70 24V26H72V24H70Z" fill="black"/>
<path d="M66 22V24H70V22H66Z" fill="black"/>
<path d="M72 26V28H74V26H72Z" fill="black"/>
<path d="M74 28V30H76V28H74Z" fill="black"/>
<path d="M76 30V34H78V30H76Z" fill="black"/>
<path d="M30 60H32V58H30V60Z" fill="black"/>
<path d="M32 62H34V60H32V62Z" fill="black"/>
<path d="M34 64H36V62H34V64Z" fill="black"/>
<path d="M36 66H38V64H36V66Z" fill="black"/>
<path d="M38 68H40V66H38V68Z" fill="black"/>
<path d="M40 70H42V68H40V70Z" fill="black"/>
<path d="M42 72H44V70H42V72Z" fill="black"/>
<path d="M44 74H46V72H44V74Z" fill="black"/>
<path d="M46 76H48V74H46V76Z" fill="black"/>
<path d="M50 76V74H48V76H50Z" fill="black"/>
<path d="M52 74V72H50V74H52Z" fill="black"/>
<path d="M54 72V70H52V72H54Z" fill="black"/>
<path d="M56 70V68H54V70H56Z" fill="black"/>
<path d="M58 68V66H56V68H58Z" fill="black"/>
<path d="M60 66V64H58V66H60Z" fill="black"/>
<path d="M62 64V62H60V64H62Z" fill="black"/>
<path d="M64 62V60H62V62H64Z" fill="black"/>
<path d="M66 60V58H64V60H66Z" fill="black"/>
<path d="M68 58V56H66V58H68Z" fill="black"/>
<path d="M70 56V54H68V56H70Z" fill="black"/>
<path d="M72 54V52H70V54H72Z" fill="black"/>
<path d="M74 52V50H72V52H74Z" fill="black"/>
<path d="M76 50V48H74V50H76Z" fill="black"/>
<path d="M76 48H78V44H76V48Z" fill="black"/>
<path d="M66 22V20H58V22H66Z" fill="black"/>
<path d="M52 24V26H54V24H52Z" fill="black"/>
<path d="M50 26V28H52V26H50Z" fill="black"/>
<path d="M44 26V28H46V26H44Z" fill="black"/>
<path d="M46 28V30H50V28H46Z" fill="black"/>
<path d="M44 34V36H52V34H44Z" fill="black"/>
<path d="M44 60V62H52V60H44Z" fill="black"/>
<path d="M62 44H60V52H62V44Z" fill="black"/>
<path d="M36 44H34V52H36V44Z" fill="black"/>
<path d="M54 36H52V42H54V36Z" fill="black"/>
<path d="M60 44V42H52V44H60Z" fill="black"/>
<path d="M42 42H44V36H42V42Z" fill="black"/>
<path d="M44 44V42H36V44H44Z" fill="black"/>
<path d="M42 60H44V54H42V60Z" fill="black"/>
<path d="M36 52V54H44V52H36Z" fill="black"/>
<path d="M54 54H52V60H54V54Z" fill="black"/>
<path d="M52 52V54H60V52H52Z" fill="black"/>
<path d="M54 22V24H58V22H54Z" fill="black"/>
</svg>
