<svg width="96" height="96" viewBox="0 0 96 96" fill="none" xmlns="http://www.w3.org/2000/svg">
<path d="M64 16H28V18H64V16Z" fill="black"/>
<path d="M64 60H18V62H64V60Z" fill="black"/>
<path d="M70 65.98H22V67.98H70V65.98Z" fill="black"/>
<path d="M71.98 66V24H69.98V66H71.98Z" fill="black"/>
<path d="M75.98 71.98H28V73.98H75.98V71.98Z" fill="black"/>
<path d="M78 72V30H76V72H78Z" fill="black"/>
<path d="M66 60V18H64V60H66Z" fill="black"/>
<path d="M18 60L18 28H16L16 60H18Z" fill="black"/>
<path d="M56 24V22H50V24H56Z" fill="black"/>
<path d="M56 36V34H50V36H56Z" fill="black"/>
<path d="M58 32H60V26H58V32Z" fill="black"/>
<path d="M46.02 32H48.02V26H46.02V32Z" fill="black"/>
<path d="M58 26V24H56V26H58Z" fill="black"/>
<path d="M50 26V24H48V26H50Z" fill="black"/>
<path d="M58 34V32H56V34H58Z" fill="black"/>
<path d="M50 34V32H48V34H50Z" fill="black"/>
<path d="M24 50V48H22V50H24Z" fill="black"/>
<path d="M22 52V50H20V52H22Z" fill="black"/>
<path d="M20 54V52H18V54H20Z" fill="black"/>
<path d="M26 48V46H24V48H26Z" fill="black"/>
<path d="M28 46V44H26V46H28Z" fill="black"/>
<path d="M30 44V42H28V44H30Z" fill="black"/>
<path d="M32 42V40H30V42H32Z" fill="black"/>
<path d="M34 40V38H32V40H34Z" fill="black"/>
<path d="M36 38V36H34V38H36Z" fill="black"/>
<path d="M40 38V36H38V38H40Z" fill="black"/>
<path d="M38 36V34H36V36H38Z" fill="black"/>
<path d="M24 24V22H22V24H24Z" fill="black"/>
<path d="M22 26V24H20V26H22Z" fill="black"/>
<path d="M20 28V26H18V28H20Z" fill="black"/>
<path d="M26 22V20H24V22H26Z" fill="black"/>
<path d="M28 20V18H26V20H28Z" fill="black"/>
<path d="M42 40V38H40V40H42Z" fill="black"/>
<path d="M44 42V40H42V42H44Z" fill="black"/>
<path d="M46 44V42H44V44H46Z" fill="black"/>
<path d="M48 46V44H46V46H48Z" fill="black"/>
<path d="M50 48V46H48V48H50Z" fill="black"/>
<path d="M52 50V48H50V50H52Z" fill="black"/>
<path d="M54 48V46H52V48H54Z" fill="black"/>
<path d="M56 46V44H54V46H56Z" fill="black"/>
<path d="M58 44V42H56V44H58Z" fill="black"/>
<path d="M60 46V44H58V46H60Z" fill="black"/>
<path d="M62 48V46H60V48H62Z" fill="black"/>
<path d="M64 50V48H62V50H64Z" fill="black"/>
</svg>
