<svg width="96" height="96" viewBox="0 0 96 96" fill="none" xmlns="http://www.w3.org/2000/svg">
<path d="M78 36H54V38H78V36Z" fill="black"/>
<path d="M78 78H36V80H78V78Z" fill="black"/>
<path d="M80 78V38H78V78H80Z" fill="black"/>
<path d="M36 78V54H34V78H36Z" fill="black"/>
<path d="M68 44V42H64V44H68Z" fill="black"/>
<path d="M68 54V52H64V54H68Z" fill="black"/>
<path d="M70 50H72V46H70V50Z" fill="black"/>
<path d="M60 50H62V46H60V50Z" fill="black"/>
<path d="M30 52V50H26V52H30Z" fill="black"/>
<path d="M18 44H20V40H18V44Z" fill="black"/>
<path d="M22 46V48H24V46H22Z" fill="black"/>
<path d="M24 48V50H26V48H24Z" fill="black"/>
<path d="M20 44V46H22V44H20Z" fill="black"/>
<path d="M52 40H50V44H52V40Z" fill="black"/>
<path d="M44 52V50H40V52H44Z" fill="black"/>
<path d="M48 46H50V44H48V46Z" fill="black"/>
<path d="M46 48H48V46H46V48Z" fill="black"/>
<path d="M44 50H46V48H44V50Z" fill="black"/>
<path d="M40 18V20H44V18H40Z" fill="black"/>
<path d="M52 26H50V30H52V26Z" fill="black"/>
<path d="M48 24V22H46V24H48Z" fill="black"/>
<path d="M46 22V20H44V22H46Z" fill="black"/>
<path d="M50 26V24H48V26H50Z" fill="black"/>
<path d="M18 30H20V26H18V30Z" fill="black"/>
<path d="M26 18V20H30V18H26Z" fill="black"/>
<path d="M22 24H20V26H22V24Z" fill="black"/>
<path d="M24 22H22V24H24V22Z" fill="black"/>
<path d="M26 20H24V22H26V20Z" fill="black"/>
<path d="M64 52V50H62V52H64Z" fill="black"/>
<path d="M70 46V44H68V46H70Z" fill="black"/>
<path d="M64 46V44H62V46H64Z" fill="black"/>
<path d="M70 52V50H68V52H70Z" fill="black"/>
<path d="M64 52V50H62V52H64Z" fill="black"/>
<path d="M64 52V50H62V52H64Z" fill="black"/>
<path d="M38 68V66H36V68H38Z" fill="black"/>
<path d="M40 66V64H38V66H40Z" fill="black"/>
<path d="M42 64V62H40V64H42Z" fill="black"/>
<path d="M44 62V60H42V62H44Z" fill="black"/>
<path d="M46 60V58H44V60H46Z" fill="black"/>
<path d="M48 58V56H46V58H48Z" fill="black"/>
<path d="M50 56V54H48V56H50Z" fill="black"/>
<path d="M52 54V52H50V54H52Z" fill="black"/>
<path d="M54 56V54H52V56H54Z" fill="black"/>
<path d="M56 58V56H54V58H56Z" fill="black"/>
<path d="M58 60V58H56V60H58Z" fill="black"/>
<path d="M60 62V60H58V62H60Z" fill="black"/>
<path d="M62 64V62H60V64H62Z" fill="black"/>
<path d="M64 66V64H62V66H64Z" fill="black"/>
<path d="M66 68V66H64V68H66Z" fill="black"/>
<path d="M68 66V64H66V66H68Z" fill="black"/>
<path d="M70 64V62H68V64H70Z" fill="black"/>
<path d="M72 62V60H70V62H72Z" fill="black"/>
<path d="M74 64V62H72V64H74Z" fill="black"/>
<path d="M76 66V64H74V66H76Z" fill="black"/>
<path d="M78 68V66H76V68H78Z" fill="black"/>
<path d="M40 54V52H30V54H40Z" fill="black"/>
<path d="M40 18V16H30V18H40Z" fill="black"/>
<path d="M44 36V34H26V36H44Z" fill="black"/>
<path d="M44 44V42H26V44H44Z" fill="black"/>
<path d="M44 28V26H26V28H44Z" fill="black"/>
<path d="M16 40H18V30H16L16 40Z" fill="black"/>
<path d="M52 40H54V30H52V40Z" fill="black"/>
</svg>
