<svg width="96" height="96" viewBox="0 0 96 96" fill="none" xmlns="http://www.w3.org/2000/svg">
<path d="M76 45.98V43.98H70V45.98H76Z" fill="black"/>
<path d="M77.98 18H75.98V44H77.98V18Z" fill="black"/>
<path d="M42 18H40V44H42V18Z" fill="black"/>
<path d="M20 41.98H18V67.98H20V41.98Z" fill="black"/>
<path d="M55.98 45.98H53.98V67.98H55.98V45.98Z" fill="black"/>
<path d="M75.98 18V16L41.98 16V18L75.98 18Z" fill="black"/>
<path d="M59.98 45.98V43.98H41.98V45.98H59.98Z" fill="black"/>
<path d="M54 69.98V67.98H36V69.98H54Z" fill="black"/>
<path d="M39.98 42V40H19.98V42H39.98Z" fill="black"/>
<path d="M26 69.98V67.98H20V69.98H26Z" fill="black"/>
<path d="M62 47.98V45.98H60V47.98H62Z" fill="black"/>
<path d="M64 49.98V47.98H62V49.98H64Z" fill="black"/>
<path d="M66 51.98V49.98H64V51.98H66Z" fill="black"/>
<path d="M68 53.98V51.98H66V53.98H68Z" fill="black"/>
<path d="M67.98 56H69.98V46H67.98V56Z" fill="black"/>
<path d="M34 74V72H32V74H34Z" fill="black"/>
<path d="M36 72V70H34V72H36Z" fill="black"/>
<path d="M38 50V48H36V50H38Z" fill="black"/>
<path d="M40 58V56H34V58H40Z" fill="black"/>
<path d="M46 63.98V61.98H44V63.98H46Z" fill="black"/>
<path d="M30 64V62H28V64H30Z" fill="black"/>
<path d="M67.98 27.98V25.98H49.98V27.98H67.98Z" fill="black"/>
<path d="M36 54V50H34V54H36Z" fill="black"/>
<path d="M40 54V50H38V54H40Z" fill="black"/>
<path d="M59.98 25.98V21.98H57.98V25.98H59.98Z" fill="black"/>
<path d="M54.98 29.98V27.98H52.98V29.98H54.98Z" fill="black"/>
<path d="M56.98 31.98V29.98H54.98V31.98H56.98Z" fill="black"/>
<path d="M58.98 33.98V31.98H56.98V33.98H58.98Z" fill="black"/>
<path d="M64.98 29.98V27.98H62.98V29.98H64.98Z" fill="black"/>
<path d="M62.98 31.98V29.98H60.98V31.98H62.98Z" fill="black"/>
<path d="M56.98 35.98V33.98H54.98V35.98H56.98Z" fill="black"/>
<path d="M62.98 35.98V33.98H60.98V35.98H62.98Z" fill="black"/>
<path d="M64.98 37.98V35.98H62.98V37.98H64.98Z" fill="black"/>
<path d="M54.98 37.98V35.98H52.98V37.98H54.98Z" fill="black"/>
<path d="M68.98 39.98V37.98H64.98V39.98H68.98Z" fill="black"/>
<path d="M52.98 39.98V37.98H48.98V39.98H52.98Z" fill="black"/>
<path d="M60.98 33.98V31.98H58.98V33.98H60.98Z" fill="black"/>
<path d="M42 58V54H40V58H42Z" fill="black"/>
<path d="M44 61.98V57.98H42V61.98H44Z" fill="black"/>
<path d="M34 58V54H32V58H34Z" fill="black"/>
<path d="M32 62V58H30V62H32Z" fill="black"/>
<path d="M32 75.98V73.98H30V75.98H32Z" fill="black"/>
<path d="M30 77.98V75.98H28V77.98H30Z" fill="black"/>
<path d="M28 69.98H26V79.98H28V69.98Z" fill="black"/>
</svg>
