<svg width="96" height="96" viewBox="0 0 96 96" fill="none" xmlns="http://www.w3.org/2000/svg">
<path d="M70 38.02V36.02H26.02V38.02H70Z" fill="black"/>
<path d="M26.02 46.02V44.02H18.02V46.02H26.02Z" fill="black"/>
<path d="M26.02 64V62H18.02V64H26.02Z" fill="black"/>
<path d="M70 72.02V70.02H26.02V72.02H70Z" fill="black"/>
<path d="M26.02 38.02H24.02V70.02H26.02V38.02Z" fill="black"/>
<path d="M18.02 46.02H16.02V62.02H18.02V46.02Z" fill="black"/>
<path d="M62 46.02V44.02H34V46.02H62Z" fill="black"/>
<path d="M62 64.02V62.02H34V64.02H62Z" fill="black"/>
<path d="M32.02 48.02H30.02V60.02H32.02V48.02Z" fill="black"/>
<path d="M41.02 50.02H39.02V58.02H41.02V50.02Z" fill="black"/>
<path d="M44 55.02V53.02H36V55.02H44Z" fill="black"/>
<path d="M57.02 50.02H55.02V58.02H57.02V50.02Z" fill="black"/>
<path d="M60 55.02V53.02H52V55.02H60Z" fill="black"/>
<path d="M66 48.02H64V60.02H66V48.02Z" fill="black"/>
<path d="M64 46.02H62V48.02H64V46.02Z" fill="black"/>
<path d="M34.02 46.02H32.02V48.02H34.02V46.02Z" fill="black"/>
<path d="M64 60H62V62H64V60Z" fill="black"/>
<path d="M34.02 60H32.02V62H34.02V60Z" fill="black"/>
<path d="M70 62.02V64.02H78V62.02H70Z" fill="black"/>
<path d="M70.02 44.02V46.02H78.02V44.02H70.02Z" fill="black"/>
<path d="M78 62H80V46H78V62Z" fill="black"/>
<path d="M54 32.02V30.02H42V32.02H54Z" fill="black"/>
<path d="M56.02 32.02H54.02V34.02H56.02V32.02Z" fill="black"/>
<path d="M58.02 34H56.02V36H58.02V34Z" fill="black"/>
<path d="M42.02 32.02H40.02V34.02H42.02V32.02Z" fill="black"/>
<path d="M40 34H38V36H40V34Z" fill="black"/>
<path d="M49.02 24H47.02V30.02H49.02V24Z" fill="black"/>
<path d="M72 38.02H70V70.02H72V38.02Z" fill="black"/>
</svg>
