<svg width="96" height="96" viewBox="0 0 96 96" fill="none" xmlns="http://www.w3.org/2000/svg">
<path d="M54 30H42V32H54V30Z" fill="black"/>
<path d="M52 16H44V18H52V16Z" fill="black"/>
<path d="M52 78.02H44V80.02H52V78.02Z" fill="black"/>
<path d="M80 51.98V44H78V51.98H80Z" fill="black"/>
<path d="M18 52.02V44H16V52.02H18Z" fill="black"/>
<path d="M54 64H42V66H54V64Z" fill="black"/>
<path d="M66 54V42H64V54H66Z" fill="black"/>
<path d="M32 54V42H30V54H32Z" fill="black"/>
<path d="M58 32H54V34H58V32Z" fill="black"/>
<path d="M60 34H58V36H60V34Z" fill="black"/>
<path d="M62 36H60V38H62V36Z" fill="black"/>
<path d="M64 38H62V42H64V38Z" fill="black"/>
<path d="M78 42H72V44H78V42Z" fill="black"/>
<path d="M78 52H72V54H78V52Z" fill="black"/>
<path d="M24 42H18V44H24V42Z" fill="black"/>
<path d="M24 52H18V54H24V52Z" fill="black"/>
<path d="M42 18V24H44V18H42Z" fill="black"/>
<path d="M52 18V24H54V18H52Z" fill="black"/>
<path d="M42 72V78H44V72H42Z" fill="black"/>
<path d="M52 72V78H54V72H52Z" fill="black"/>
<path d="M54 62V64H58V62H54Z" fill="black"/>
<path d="M58 60V62H60V60H58Z" fill="black"/>
<path d="M60 58V60H62V58H60Z" fill="black"/>
<path d="M61.98 54V58H63.98V54H61.98Z" fill="black"/>
<path d="M37.98 64H41.98V62H37.98V64Z" fill="black"/>
<path d="M35.98 62H37.98V60H35.98V62Z" fill="black"/>
<path d="M33.98 60H35.98V58H33.98V60Z" fill="black"/>
<path d="M31.98 58H33.98V54H31.98V58Z" fill="black"/>
<path d="M42 34V32H38V34H42Z" fill="black"/>
<path d="M38 36V34H36V36H38Z" fill="black"/>
<path d="M36 38V36H34V38H36Z" fill="black"/>
<path d="M34 42V38H32V42H34Z" fill="black"/>
<path d="M28 72V74H32V72H28Z" fill="black"/>
<path d="M26 70V72H28V70H26Z" fill="black"/>
<path d="M32 70V72H34V70H32Z" fill="black"/>
<path d="M34 68V70H38V68H34Z" fill="black"/>
<path d="M24 68V70H26V68H24Z" fill="black"/>
<path d="M24 62V64H26V62H24Z" fill="black"/>
<path d="M25.98 58V62H27.98V58H25.98Z" fill="black"/>
<path d="M22 64V68H24V64H22Z" fill="black"/>
<path d="M71.98 68H73.98V64H71.98V68Z" fill="black"/>
<path d="M69.98 70H71.98V68H69.98V70Z" fill="black"/>
<path d="M67.98 72H69.98V70H67.98V72Z" fill="black"/>
<path d="M61.98 72H63.98V70H61.98V72Z" fill="black"/>
<path d="M69.98 64H71.98V62H69.98V64Z" fill="black"/>
<path d="M57.98 70H61.98V68H57.98V70Z" fill="black"/>
<path d="M53.98 72H57.98V70H53.98V72Z" fill="black"/>
<path d="M37.98 72H41.98V70H37.98V72Z" fill="black"/>
<path d="M67.98 62H69.98V58H67.98V62Z" fill="black"/>
<path d="M63.98 74H67.98V72H63.98V74Z" fill="black"/>
<path d="M32 24V22H28V24H32Z" fill="black"/>
<path d="M28 26V24H26V26H28Z" fill="black"/>
<path d="M34 26V24H32V26H34Z" fill="black"/>
<path d="M38 28V26H34V28H38Z" fill="black"/>
<path d="M42 26V24H38V26H42Z" fill="black"/>
<path d="M23.98 42H25.98V38H23.98V42Z" fill="black"/>
<path d="M23.98 58.02H25.98V54.02H23.98V58.02Z" fill="black"/>
<path d="M69.98 42H71.98V38H69.98V42Z" fill="black"/>
<path d="M69.98 58H71.98V54H69.98V58Z" fill="black"/>
<path d="M58 26V24H54V26H58Z" fill="black"/>
<path d="M26 28V26H24V28H26Z" fill="black"/>
<path d="M26 34V32H24V34H26Z" fill="black"/>
<path d="M28 38V34H26V38H28Z" fill="black"/>
<path d="M24 32V28H22V32H24Z" fill="black"/>
<path d="M71.98 32H73.98V28H71.98V32Z" fill="black"/>
<path d="M69.98 28H71.98V26H69.98V28Z" fill="black"/>
<path d="M67.98 26H69.98V24H67.98V26Z" fill="black"/>
<path d="M61.98 26H63.98V24H61.98V26Z" fill="black"/>
<path d="M69.98 34H71.98V32H69.98V34Z" fill="black"/>
<path d="M57.98 28H61.98V26H57.98V28Z" fill="black"/>
<path d="M67.98 38H69.98V34H67.98V38Z" fill="black"/>
<path d="M63.98 24H67.98V22H63.98V24Z" fill="black"/>
</svg>
