<svg width="96" height="96" viewBox="0 0 96 96" fill="none" xmlns="http://www.w3.org/2000/svg">
<path d="M22 24V26H24V24H22Z" fill="black"/>
<path d="M24 22V24H28V22H24Z" fill="black"/>
<path d="M36 22V24H38V22H36Z" fill="black"/>
<path d="M38 23.98V25.98H40V23.98H38Z" fill="black"/>
<path d="M40 22V24H42V22H40Z" fill="black"/>
<path d="M40 26V28H42V26H40Z" fill="black"/>
<path d="M28 20V22H36V20H28Z" fill="black"/>
<path d="M38 20V22H40V20H38Z" fill="black"/>
<path d="M38 28V30H40V28H38Z" fill="black"/>
<path d="M28 28V30H36V28H28Z" fill="black"/>
<path d="M24 26V28H28V26H24Z" fill="black"/>
<path d="M36 26V28H38V26H36Z" fill="black"/>
<path d="M45.98 74V72H43.98V74H45.98Z" fill="black"/>
<path d="M44 72V70H39.98V72H44Z" fill="black"/>
<path d="M38 72V76H40V72H38Z" fill="black"/>
<path d="M80 74V64H78V74H80Z" fill="black"/>
<path d="M16 64V74H18V64H16Z" fill="black"/>
<path d="M54 38H42V40H54V38Z" fill="black"/>
<path d="M42 40H36V42H42V40Z" fill="black"/>
<path d="M60 40H54V42H60V40Z" fill="black"/>
<path d="M64 42H60V44H64V42Z" fill="black"/>
<path d="M60 24H46V26H60V24Z" fill="black"/>
<path d="M36 42H32V44H36V42Z" fill="black"/>
<path d="M32 44H30V46H32V44Z" fill="black"/>
<path d="M28 62V66H30V62H28Z" fill="black"/>
<path d="M30 68H34V66H30V68Z" fill="black"/>
<path d="M34 60H30V62H34V60Z" fill="black"/>
<path d="M44 50H46V48H44V50Z" fill="black"/>
<path d="M46 52H48V50H46V52Z" fill="black"/>
<path d="M44 54H46V52H44V54Z" fill="black"/>
<path d="M24 56H28V54H24V56Z" fill="black"/>
<path d="M28 54H30V52H28V54Z" fill="black"/>
<path d="M22 54H24V52H22V54Z" fill="black"/>
<path d="M30 46H28V48H30V46Z" fill="black"/>
<path d="M28 48H26V50H28V48Z" fill="black"/>
<path d="M26 50H24V52H26V50Z" fill="black"/>
<path d="M74 54V52H72V54H74Z" fill="black"/>
<path d="M72 52V50H70V52H72Z" fill="black"/>
<path d="M70 50V48H68V50H70Z" fill="black"/>
<path d="M68 48V46H66V48H68Z" fill="black"/>
<path d="M66 46V44H64V46H66Z" fill="black"/>
<path d="M64 62H66V60H64V62Z" fill="black"/>
<path d="M58 60H64V58H58V60Z" fill="black"/>
<path d="M58 68H56V70H58V68Z" fill="black"/>
<path d="M58 60H56V62H58V60Z" fill="black"/>
<path d="M56 67.98V61.98H54V67.98H56Z" fill="black"/>
<path d="M60 46H58V48H60V46Z" fill="black"/>
<path d="M64 48H60V50H64V48Z" fill="black"/>
<path d="M58 46V42H56V46H58Z" fill="black"/>
<path d="M78 64V58H76V64H78Z" fill="black"/>
<path d="M76 58V54H74V58H76Z" fill="black"/>
<path d="M76 32V30H74V32H76Z" fill="black"/>
<path d="M78 34V32H76V34H78Z" fill="black"/>
<path d="M78 36V34H76V36H78Z" fill="black"/>
<path d="M76 38V36H74V38H76Z" fill="black"/>
<path d="M74 40V38H72V40H74Z" fill="black"/>
<path d="M74 30V28H70V30H74Z" fill="black"/>
<path d="M70 28V26H60V28H70Z" fill="black"/>
<path d="M18 58V64H20V58H18Z" fill="black"/>
<path d="M20 54V58H22V54H20Z" fill="black"/>
<path d="M70 69.98H72V67.98H70V69.98Z" fill="black"/>
<path d="M72.02 71.98H74.02V69.98H72.02V71.98Z" fill="black"/>
<path d="M70 74H72V72H70V74Z" fill="black"/>
</svg>
