<svg width="96" height="96" viewBox="0 0 96 96" fill="none" xmlns="http://www.w3.org/2000/svg">
<path d="M54 16H42V18H54V16Z" fill="black"/>
<path d="M42 18H36V20H42V18Z" fill="black"/>
<path d="M60 18H54V20H60V18Z" fill="black"/>
<path d="M64 20H60V22H64V20Z" fill="black"/>
<path d="M36 20H32V22H36V20Z" fill="black"/>
<path d="M32 22H30V24H32V22Z" fill="black"/>
<path d="M48 53.98V51.98H46V53.98H48Z" fill="black"/>
<path d="M44 50V48H42V50H44Z" fill="black"/>
<path d="M40 50V54H42V50H40Z" fill="black"/>
<path d="M42 56H46V54H42V56Z" fill="black"/>
<path d="M60 64H56V66H60V64Z" fill="black"/>
<path d="M54 66V70H56V66H54Z" fill="black"/>
<path d="M28 40.02V44.02H30V40.02H28Z" fill="black"/>
<path d="M30 46H34V44H30V46Z" fill="black"/>
<path d="M34 38H30V40H34V38Z" fill="black"/>
<path d="M28.02 58H30.02V56H28.02V58Z" fill="black"/>
<path d="M30.02 60H32.02V58H30.02V60Z" fill="black"/>
<path d="M28.02 62.02H30.02V60.02H28.02V62.02Z" fill="black"/>
<path d="M63.98 58H65.98V56H63.98V58Z" fill="black"/>
<path d="M68 58H70V56H68V58Z" fill="black"/>
<path d="M65.98 60H67.98V58H65.98V60Z" fill="black"/>
<path d="M44 28H46V26H44V28Z" fill="black"/>
<path d="M41.98 30H43.98V28H41.98V30Z" fill="black"/>
<path d="M46 30H48V28H46V30Z" fill="black"/>
<path d="M44 32H46V30H44V32Z" fill="black"/>
<path d="M24.02 34H28.02V32H24.02V34Z" fill="black"/>
<path d="M28.02 32H30.02V30H28.02V32Z" fill="black"/>
<path d="M22.02 32H24.02V30H22.02V32Z" fill="black"/>
<path d="M44 72H46V70H44V72Z" fill="black"/>
<path d="M38 72H40V70H38V72Z" fill="black"/>
<path d="M30 24H28V26H30V24Z" fill="black"/>
<path d="M28 26H26V28H28V26Z" fill="black"/>
<path d="M26 28H24V30H26V28Z" fill="black"/>
<path d="M74 32V30H72V32H74Z" fill="black"/>
<path d="M72 30V28H70V30H72Z" fill="black"/>
<path d="M70 28V26H68V28H70Z" fill="black"/>
<path d="M68 26V24H66V26H68Z" fill="black"/>
<path d="M66 24V22H64V24H66Z" fill="black"/>
<path d="M64 74H66V72H64V74Z" fill="black"/>
<path d="M66 72H68V70H66V72Z" fill="black"/>
<path d="M68 70H70V68H68V70Z" fill="black"/>
<path d="M70 68H72V66H70V68Z" fill="black"/>
<path d="M72 66H74V64H72V66Z" fill="black"/>
<path d="M22 64V66H24V64H22Z" fill="black"/>
<path d="M24 66V68H26V66H24Z" fill="black"/>
<path d="M26 68V70H28V68H26Z" fill="black"/>
<path d="M28 70V72H30V70H28Z" fill="black"/>
<path d="M30 72V74H32V72H30Z" fill="black"/>
<path d="M42 80H54V78H42V80Z" fill="black"/>
<path d="M54 78H60V76H54V78Z" fill="black"/>
<path d="M36 78H42V76H36V78Z" fill="black"/>
<path d="M40.02 70H44V68H40.02V70Z" fill="black"/>
<path d="M32 76H36V74H32V76Z" fill="black"/>
<path d="M46 72V74H48V72H46Z" fill="black"/>
<path d="M64 40H66V38H64V40Z" fill="black"/>
<path d="M58 38H64V36H58V38Z" fill="black"/>
<path d="M58 46H56V48H58V46Z" fill="black"/>
<path d="M58 38H56V40H58V38Z" fill="black"/>
<path d="M62 48H58V50H62V48Z" fill="black"/>
<path d="M56 46V40H54V46H56Z" fill="black"/>
<path d="M60 24H58V26H60V24Z" fill="black"/>
<path d="M64 26H60V28H64V26Z" fill="black"/>
<path d="M58 24V20H56V24H58Z" fill="black"/>
<path d="M60 76H64V74H60V76Z" fill="black"/>
<path d="M80 54V42H78V54H80Z" fill="black"/>
<path d="M78 42V36H76V42H78Z" fill="black"/>
<path d="M78 60V54H76V60H78Z" fill="black"/>
<path d="M76 36V32H74V36H76Z" fill="black"/>
<path d="M76 64V60H74V64H76Z" fill="black"/>
<path d="M16 42V54H18V42H16Z" fill="black"/>
<path d="M18 54V60H20V54H18Z" fill="black"/>
<path d="M18 36V42H20V36H18Z" fill="black"/>
<path d="M20 60V64H22V60H20Z" fill="black"/>
<path d="M20 32V36H22V32H20Z" fill="black"/>
</svg>
