<svg width="96" height="96" viewBox="0 0 96 96" fill="none" xmlns="http://www.w3.org/2000/svg">
<path d="M30 26H16V28H30V26Z" fill="black"/>
<path d="M56 44H52V46H56V44Z" fill="black"/>
<path d="M58 42H56V44H58V42Z" fill="black"/>
<path d="M52 46H44V48H52V46Z" fill="black"/>
<path d="M52 50H44V52H52V50Z" fill="black"/>
<path d="M64 30.02H66V28.02H64V30.02Z" fill="black"/>
<path d="M58 42.02H60V38.02H58V42.02Z" fill="black"/>
<path d="M60 38.02H62V34.02H60V38.02Z" fill="black"/>
<path d="M62 34.02H64V30.02H62V34.02Z" fill="black"/>
<path d="M40 46.02H44V44.02H40V46.02Z" fill="black"/>
<path d="M38 44.02H40V42.02H38V44.02Z" fill="black"/>
<path d="M31.98 28H29.98V30H31.98V28Z" fill="black"/>
<path d="M37.98 38H35.98V42H37.98V38Z" fill="black"/>
<path d="M35.98 34H33.98V38H35.98V34Z" fill="black"/>
<path d="M33.98 30H31.98V34H33.98V30Z" fill="black"/>
<path d="M56 52H52V54H56V52Z" fill="black"/>
<path d="M58 54H56V56H58V54Z" fill="black"/>
<path d="M64 70.02H66V68.02H64V70.02Z" fill="black"/>
<path d="M58 60.02H60V56.02H58V60.02Z" fill="black"/>
<path d="M60 64.02H62V60.02H60V64.02Z" fill="black"/>
<path d="M62 68.02H64V64.02H62V68.02Z" fill="black"/>
<path d="M40 54.02H44V52.02H40V54.02Z" fill="black"/>
<path d="M38 56.02H40V54.02H38V56.02Z" fill="black"/>
<path d="M31.98 68H29.98V70H31.98V68Z" fill="black"/>
<path d="M37.98 56H35.98V60H37.98V56Z" fill="black"/>
<path d="M35.98 60H33.98V64H35.98V60Z" fill="black"/>
<path d="M33.98 64H31.98V68H33.98V64Z" fill="black"/>
<path d="M30 70H16V72H30V70Z" fill="black"/>
<path d="M80 26H66V28H80V26Z" fill="black"/>
<path d="M80 70H66V72H80V70Z" fill="black"/>
</svg>
