<svg width="96" height="96" viewBox="0 0 96 96" fill="none" xmlns="http://www.w3.org/2000/svg">
<g clip-path="url(#clip0)">
<path d="M79 49.0103V47.0097H77V49.0103H79Z" fill="black"/>
<path d="M21 75.0193L21 21.0007H19L19 75.0193H21Z" fill="black"/>
<path d="M29 25.0021L33 25.0021L33 23.0014L29 23.0014L29 25.0021Z" fill="black"/>
<path d="M29 71.0179L33 71.0179L33 73.0186L29 73.0186L29 71.0179Z" fill="black"/>
<path d="M25 23.0014L29 23.0014L29 21.0007L25 21.0007L25 23.0014Z" fill="black"/>
<path d="M25 73.0186L29 73.0186L29 75.0193L25 75.0193L25 73.0186Z" fill="black"/>
<path d="M21 21.0007L25 21.0007L25 19L21 19L21 21.0007Z" fill="black"/>
<path d="M21 75.0193L25 75.0193L25 77.02L21 77.02L21 75.0193Z" fill="black"/>
<path d="M33 27.0028L37 27.0028L37 25.0021L33 25.0021L33 27.0028Z" fill="black"/>
<path d="M33 69.0172L37 69.0172L37 71.0179L33 71.0179L33 69.0172Z" fill="black"/>
<path d="M37 29.0034L41 29.0034L41 27.0028L37 27.0028L37 29.0034Z" fill="black"/>
<path d="M37 67.0166L41 67.0166L41 69.0172L37 69.0172L37 67.0166Z" fill="black"/>
<path d="M41 31.0041L45 31.0041L45 29.0034L41 29.0034L41 31.0041Z" fill="black"/>
<path d="M41 65.0159L45 65.0159L45 67.0166L41 67.0166L41 65.0159Z" fill="black"/>
<path d="M45 31.0041L49 31.0041L49 33.0048L45 33.0048L45 31.0041Z" fill="black"/>
<path d="M45 65.0159L49 65.0159L49 63.0152L45 63.0152L45 65.0159Z" fill="black"/>
<path d="M49 33.0048L53 33.0048L53 35.0055L49 35.0055L49 33.0048Z" fill="black"/>
<path d="M49 63.0152L53 63.0152L53 61.0145L49 61.0145L49 63.0152Z" fill="black"/>
<path d="M53 35.0055L57 35.0055L57 37.0062L53 37.0062L53 35.0055Z" fill="black"/>
<path d="M53 61.0145L57 61.0145L57 59.0138L53 59.0138L53 61.0145Z" fill="black"/>
<path d="M57 37.0062L61 37.0062L61 39.0069L57 39.0069L57 37.0062Z" fill="black"/>
<path d="M57 59.0138L61 59.0138L61 57.0131L57 57.0131L57 59.0138Z" fill="black"/>
<path d="M61 39.0069L65 39.0069L65 41.0076L61 41.0076L61 39.0069Z" fill="black"/>
<path d="M61 57.0131L65 57.0131L65 55.0124L61 55.0124L61 57.0131Z" fill="black"/>
<path d="M65 41.0076L69 41.0076L69 43.0083L65 43.0083L65 41.0076Z" fill="black"/>
<path d="M65 55.0124L69 55.0124L69 53.0117L65 53.0117L65 55.0124Z" fill="black"/>
<path d="M69 43.0083L73 43.0083L73 45.009L69 45.009L69 43.0083Z" fill="black"/>
<path d="M69 53.0117L73 53.0117L73 51.011L69 51.011L69 53.0117Z" fill="black"/>
<path d="M73 45.009L77 45.009L77 47.0097L73 47.0097L73 45.009Z" fill="black"/>
<path d="M73 51.011L77 51.011L77 49.0103L73 49.0103L73 51.011Z" fill="black"/>
</g>
<defs>
<clipPath id="clip0">
<rect width="62" height="58" fill="white" transform="translate(19 19)"/>
</clipPath>
</defs>
</svg>
