<svg width="160" height="96" viewBox="0 0 160 96" fill="none" xmlns="http://www.w3.org/2000/svg">
<path d="M18.02 18.02H16.02V78.02H18.02V18.02Z" fill="black"/>
<path d="M48.02 18.02H46.02V78.02H48.02V18.02Z" fill="black"/>
<path d="M82.02 47.02H64.02V49.02H82.02V47.02Z" fill="black"/>
<path d="M84.02 45.02H82.02V47.02H84.02V45.02Z" fill="black"/>
<path d="M82.02 43.02H80.02V45.02H82.02V43.02Z" fill="black"/>
<path d="M80.02 41.02H78.02V43.02H80.02V41.02Z" fill="black"/>
<path d="M80.02 55.02V53.02H78.02V55.02H80.02Z" fill="black"/>
<path d="M82.02 53.02V51.02H80.02V53.02H82.02Z" fill="black"/>
<path d="M84.02 51.02V49.02H82.02V51.02H84.02Z" fill="black"/>
<path d="M86.02 49.02V47.02H84.02V49.02H86.02Z" fill="black"/>
<path d="M110.02 35.02H108.02V61.02H110.02V35.02Z" fill="black"/>
<path d="M138.02 35.02H136.02V61.02H138.02V35.02Z" fill="black"/>
<path d="M136.02 35.02V33.02H110.02V35.02H136.02Z" fill="black"/>
<path d="M136.02 63.02V61.02H110.02V63.02H136.02Z" fill="black"/>
<path d="M42.02 24.02H22.02V26.02H42.02V24.02Z" fill="black"/>
<path d="M42.02 30.02H22.02V32.02H42.02V30.02Z" fill="black"/>
<path d="M42.02 36.02H22.02V38.02H42.02V36.02Z" fill="black"/>
<path d="M42.02 42.02H22.02V44.02H42.02V42.02Z" fill="black"/>
<path d="M42.02 48.02H22.02V50.02H42.02V48.02Z" fill="black"/>
<path d="M42.02 54.02H22.02V56.02H42.02V54.02Z" fill="black"/>
<path d="M42.02 60.02H22.02V62.02H42.02V60.02Z" fill="black"/>
<path d="M42.02 66.02H22.02V68.02H42.02V66.02Z" fill="black"/>
<path d="M46.02 16.02H18.02V18.02H46.02V16.02Z" fill="black"/>
<path d="M46.02 78.02H18.02V80.02H46.02V78.02Z" fill="black"/>
<path d="M124.7 69.02H126.7V65.02H124.7V69.02Z" fill="black"/>
<path d="M130.02 69.02H132.02V65.02H130.02V69.02Z" fill="black"/>
<path d="M119.34 69.02H121.34V65.02H119.34V69.02Z" fill="black"/>
<path d="M114.02 69.02H116.02V65.02H114.02V69.02Z" fill="black"/>
<path d="M124.7 31.02H126.7V27.02H124.7V31.02Z" fill="black"/>
<path d="M130.02 31.02H132.02V27.02H130.02V31.02Z" fill="black"/>
<path d="M119.34 31.02H121.34V27.02H119.34V31.02Z" fill="black"/>
<path d="M114.02 31.02H116.02V27.02H114.02V31.02Z" fill="black"/>
<path d="M106.02 46.36V44.36H102.02V46.36H106.02Z" fill="black"/>
<path d="M106.02 41.02V39.02H102.02V41.02H106.02Z" fill="black"/>
<path d="M106.02 51.68V49.68H102.02V51.68H106.02Z" fill="black"/>
<path d="M106.02 57.02V55.02H102.02V57.02H106.02Z" fill="black"/>
<path d="M144.02 46.36V44.36H140.02V46.36H144.02Z" fill="black"/>
<path d="M144.02 41.02V39.02H140.02V41.02H144.02Z" fill="black"/>
<path d="M144.02 51.68V49.68H140.02V51.68H144.02Z" fill="black"/>
<path d="M144.02 57.02V55.02H140.02V57.02H144.02Z" fill="black"/>
</svg>
