<svg width="160" height="96" viewBox="0 0 160 96" fill="none" xmlns="http://www.w3.org/2000/svg">
<path d="M18 18H16V78H18V18Z" fill="black"/>
<path d="M48 18H46V78H48V18Z" fill="black"/>
<path d="M22 24H20V26H22V24Z" fill="black"/>
<path d="M26 24H24V26H26V24Z" fill="black"/>
<path d="M24 22H22V24H24V22Z" fill="black"/>
<path d="M24 26H22V28H24V26Z" fill="black"/>
<path d="M22 30H20V32H22V30Z" fill="black"/>
<path d="M26 30H24V32H26V30Z" fill="black"/>
<path d="M24 28H22V30H24V28Z" fill="black"/>
<path d="M24 32H22V34H24V32Z" fill="black"/>
<path d="M31 30H29V32H31V30Z" fill="black"/>
<path d="M35 30H33V32H35V30Z" fill="black"/>
<path d="M33 28H31V30H33V28Z" fill="black"/>
<path d="M33 32H31V34H33V32Z" fill="black"/>
<path d="M40 30H38V32H40V30Z" fill="black"/>
<path d="M44 30H42V32H44V30Z" fill="black"/>
<path d="M42 28H40V30H42V28Z" fill="black"/>
<path d="M42 32H40V34H42V32Z" fill="black"/>
<path d="M22 36H20V38H22V36Z" fill="black"/>
<path d="M26 36H24V38H26V36Z" fill="black"/>
<path d="M24 34H22V36H24V34Z" fill="black"/>
<path d="M24 38H22V40H24V38Z" fill="black"/>
<path d="M31 36H29V38H31V36Z" fill="black"/>
<path d="M35 36H33V38H35V36Z" fill="black"/>
<path d="M33 34H31V36H33V34Z" fill="black"/>
<path d="M33 38H31V40H33V38Z" fill="black"/>
<path d="M40 36H38V38H40V36Z" fill="black"/>
<path d="M44 36H42V38H44V36Z" fill="black"/>
<path d="M42 34H40V36H42V34Z" fill="black"/>
<path d="M42 38H40V40H42V38Z" fill="black"/>
<path d="M22 42H20V44H22V42Z" fill="black"/>
<path d="M26 42H24V44H26V42Z" fill="black"/>
<path d="M24 40H22V42H24V40Z" fill="black"/>
<path d="M24 44H22V46H24V44Z" fill="black"/>
<path d="M31 42H29V44H31V42Z" fill="black"/>
<path d="M35 42H33V44H35V42Z" fill="black"/>
<path d="M33 40H31V42H33V40Z" fill="black"/>
<path d="M33 44H31V46H33V44Z" fill="black"/>
<path d="M40 42H38V44H40V42Z" fill="black"/>
<path d="M44 42H42V44H44V42Z" fill="black"/>
<path d="M42 40H40V42H42V40Z" fill="black"/>
<path d="M42 44H40V46H42V44Z" fill="black"/>
<path d="M22 48H20V50H22V48Z" fill="black"/>
<path d="M26 48H24V50H26V48Z" fill="black"/>
<path d="M24 46H22V48H24V46Z" fill="black"/>
<path d="M24 50H22V52H24V50Z" fill="black"/>
<path d="M31 48H29V50H31V48Z" fill="black"/>
<path d="M35 48H33V50H35V48Z" fill="black"/>
<path d="M33 46H31V48H33V46Z" fill="black"/>
<path d="M33 50H31V52H33V50Z" fill="black"/>
<path d="M40 48H38V50H40V48Z" fill="black"/>
<path d="M44 48H42V50H44V48Z" fill="black"/>
<path d="M42 46H40V48H42V46Z" fill="black"/>
<path d="M42 50H40V52H42V50Z" fill="black"/>
<path d="M22 54H20V56H22V54Z" fill="black"/>
<path d="M26 54H24V56H26V54Z" fill="black"/>
<path d="M24 52H22V54H24V52Z" fill="black"/>
<path d="M24 56H22V58H24V56Z" fill="black"/>
<path d="M31 54H29V56H31V54Z" fill="black"/>
<path d="M35 54H33V56H35V54Z" fill="black"/>
<path d="M33 52H31V54H33V52Z" fill="black"/>
<path d="M33 56H31V58H33V56Z" fill="black"/>
<path d="M40 54H38V56H40V54Z" fill="black"/>
<path d="M44 54H42V56H44V54Z" fill="black"/>
<path d="M42 52H40V54H42V52Z" fill="black"/>
<path d="M42 56H40V58H42V56Z" fill="black"/>
<path d="M22 60H20V62H22V60Z" fill="black"/>
<path d="M26 60H24V62H26V60Z" fill="black"/>
<path d="M24 58H22V60H24V58Z" fill="black"/>
<path d="M24 62H22V64H24V62Z" fill="black"/>
<path d="M31 60H29V62H31V60Z" fill="black"/>
<path d="M35 60H33V62H35V60Z" fill="black"/>
<path d="M33 58H31V60H33V58Z" fill="black"/>
<path d="M33 62H31V64H33V62Z" fill="black"/>
<path d="M40 60H38V62H40V60Z" fill="black"/>
<path d="M44 60H42V62H44V60Z" fill="black"/>
<path d="M42 58H40V60H42V58Z" fill="black"/>
<path d="M42 62H40V64H42V62Z" fill="black"/>
<path d="M22 66H20V68H22V66Z" fill="black"/>
<path d="M26 66H24V68H26V66Z" fill="black"/>
<path d="M24 64H22V66H24V64Z" fill="black"/>
<path d="M24 68H22V70H24V68Z" fill="black"/>
<path d="M31 66H29V68H31V66Z" fill="black"/>
<path d="M35 66H33V68H35V66Z" fill="black"/>
<path d="M33 64H31V66H33V64Z" fill="black"/>
<path d="M33 68H31V70H33V68Z" fill="black"/>
<path d="M40 66H38V68H40V66Z" fill="black"/>
<path d="M44 66H42V68H44V66Z" fill="black"/>
<path d="M42 64H40V66H42V64Z" fill="black"/>
<path d="M42 68H40V70H42V68Z" fill="black"/>
<path d="M31 24H29V26H31V24Z" fill="black"/>
<path d="M35 24H33V26H35V24Z" fill="black"/>
<path d="M33 22H31V24H33V22Z" fill="black"/>
<path d="M33 26H31V28H33V26Z" fill="black"/>
<path d="M40 24H38V26H40V24Z" fill="black"/>
<path d="M44 24H42V26H44V24Z" fill="black"/>
<path d="M42 22H40V24H42V22Z" fill="black"/>
<path d="M42 26H40V28H42V26Z" fill="black"/>
<path d="M110 24H50V26H110V24Z" fill="black"/>
<path d="M110 30H50V32H110V30Z" fill="black"/>
<path d="M110 36H50V38H110V36Z" fill="black"/>
<path d="M110 42H50V44H110V42Z" fill="black"/>
<path d="M110 48H50V50H110V48Z" fill="black"/>
<path d="M110 54H50V56H110V54Z" fill="black"/>
<path d="M110 60H50V62H110V60Z" fill="black"/>
<path d="M110 66H50V68H110V66Z" fill="black"/>
<path d="M46 16H18V18H46V16Z" fill="black"/>
<path d="M46 78H18V80H46V78Z" fill="black"/>
<path d="M114 18H112V78H114V18Z" fill="black"/>
<path d="M144 18H142V78H144V18Z" fill="black"/>
<path d="M118 24H116V26H118V24Z" fill="black"/>
<path d="M122 24H120V26H122V24Z" fill="black"/>
<path d="M120 22H118V24H120V22Z" fill="black"/>
<path d="M120 26H118V28H120V26Z" fill="black"/>
<path d="M118 30H116V32H118V30Z" fill="black"/>
<path d="M122 30H120V32H122V30Z" fill="black"/>
<path d="M120 28H118V30H120V28Z" fill="black"/>
<path d="M120 32H118V34H120V32Z" fill="black"/>
<path d="M127 30H125V32H127V30Z" fill="black"/>
<path d="M131 30H129V32H131V30Z" fill="black"/>
<path d="M129 28H127V30H129V28Z" fill="black"/>
<path d="M129 32H127V34H129V32Z" fill="black"/>
<path d="M136 30H134V32H136V30Z" fill="black"/>
<path d="M140 30H138V32H140V30Z" fill="black"/>
<path d="M138 28H136V30H138V28Z" fill="black"/>
<path d="M138 32H136V34H138V32Z" fill="black"/>
<path d="M118 36H116V38H118V36Z" fill="black"/>
<path d="M122 36H120V38H122V36Z" fill="black"/>
<path d="M120 34H118V36H120V34Z" fill="black"/>
<path d="M120 38H118V40H120V38Z" fill="black"/>
<path d="M127 36H125V38H127V36Z" fill="black"/>
<path d="M131 36H129V38H131V36Z" fill="black"/>
<path d="M129 34H127V36H129V34Z" fill="black"/>
<path d="M129 38H127V40H129V38Z" fill="black"/>
<path d="M136 36H134V38H136V36Z" fill="black"/>
<path d="M140 36H138V38H140V36Z" fill="black"/>
<path d="M138 34H136V36H138V34Z" fill="black"/>
<path d="M138 38H136V40H138V38Z" fill="black"/>
<path d="M118 42H116V44H118V42Z" fill="black"/>
<path d="M122 42H120V44H122V42Z" fill="black"/>
<path d="M120 40H118V42H120V40Z" fill="black"/>
<path d="M120 44H118V46H120V44Z" fill="black"/>
<path d="M127 42H125V44H127V42Z" fill="black"/>
<path d="M131 42H129V44H131V42Z" fill="black"/>
<path d="M129 40H127V42H129V40Z" fill="black"/>
<path d="M129 44H127V46H129V44Z" fill="black"/>
<path d="M136 42H134V44H136V42Z" fill="black"/>
<path d="M140 42H138V44H140V42Z" fill="black"/>
<path d="M138 40H136V42H138V40Z" fill="black"/>
<path d="M138 44H136V46H138V44Z" fill="black"/>
<path d="M118 48H116V50H118V48Z" fill="black"/>
<path d="M122 48H120V50H122V48Z" fill="black"/>
<path d="M120 46H118V48H120V46Z" fill="black"/>
<path d="M120 50H118V52H120V50Z" fill="black"/>
<path d="M127 48H125V50H127V48Z" fill="black"/>
<path d="M131 48H129V50H131V48Z" fill="black"/>
<path d="M129 46H127V48H129V46Z" fill="black"/>
<path d="M129 50H127V52H129V50Z" fill="black"/>
<path d="M136 48H134V50H136V48Z" fill="black"/>
<path d="M140 48H138V50H140V48Z" fill="black"/>
<path d="M138 46H136V48H138V46Z" fill="black"/>
<path d="M138 50H136V52H138V50Z" fill="black"/>
<path d="M118 54H116V56H118V54Z" fill="black"/>
<path d="M122 54H120V56H122V54Z" fill="black"/>
<path d="M120 52H118V54H120V52Z" fill="black"/>
<path d="M120 56H118V58H120V56Z" fill="black"/>
<path d="M127 54H125V56H127V54Z" fill="black"/>
<path d="M131 54H129V56H131V54Z" fill="black"/>
<path d="M129 52H127V54H129V52Z" fill="black"/>
<path d="M129 56H127V58H129V56Z" fill="black"/>
<path d="M136 54H134V56H136V54Z" fill="black"/>
<path d="M140 54H138V56H140V54Z" fill="black"/>
<path d="M138 52H136V54H138V52Z" fill="black"/>
<path d="M138 56H136V58H138V56Z" fill="black"/>
<path d="M118 60H116V62H118V60Z" fill="black"/>
<path d="M122 60H120V62H122V60Z" fill="black"/>
<path d="M120 58H118V60H120V58Z" fill="black"/>
<path d="M120 62H118V64H120V62Z" fill="black"/>
<path d="M127 60H125V62H127V60Z" fill="black"/>
<path d="M131 60H129V62H131V60Z" fill="black"/>
<path d="M129 58H127V60H129V58Z" fill="black"/>
<path d="M129 62H127V64H129V62Z" fill="black"/>
<path d="M136 60H134V62H136V60Z" fill="black"/>
<path d="M140 60H138V62H140V60Z" fill="black"/>
<path d="M138 58H136V60H138V58Z" fill="black"/>
<path d="M138 62H136V64H138V62Z" fill="black"/>
<path d="M118 66H116V68H118V66Z" fill="black"/>
<path d="M122 66H120V68H122V66Z" fill="black"/>
<path d="M120 64H118V66H120V64Z" fill="black"/>
<path d="M120 68H118V70H120V68Z" fill="black"/>
<path d="M127 66H125V68H127V66Z" fill="black"/>
<path d="M131 66H129V68H131V66Z" fill="black"/>
<path d="M129 64H127V66H129V64Z" fill="black"/>
<path d="M129 68H127V70H129V68Z" fill="black"/>
<path d="M136 66H134V68H136V66Z" fill="black"/>
<path d="M140 66H138V68H140V66Z" fill="black"/>
<path d="M138 64H136V66H138V64Z" fill="black"/>
<path d="M138 68H136V70H138V68Z" fill="black"/>
<path d="M127 24H125V26H127V24Z" fill="black"/>
<path d="M131 24H129V26H131V24Z" fill="black"/>
<path d="M129 22H127V24H129V22Z" fill="black"/>
<path d="M129 26H127V28H129V26Z" fill="black"/>
<path d="M136 24H134V26H136V24Z" fill="black"/>
<path d="M140 24H138V26H140V24Z" fill="black"/>
<path d="M138 22H136V24H138V22Z" fill="black"/>
<path d="M138 26H136V28H138V26Z" fill="black"/>
<path d="M142 16H114V18H142V16Z" fill="black"/>
<path d="M142 78H114V80H142V78Z" fill="black"/>
</svg>
