<svg width="96" height="96" viewBox="0 0 96 96" fill="none" xmlns="http://www.w3.org/2000/svg">
<path d="M18 46H16V78H18V46Z" fill="black"/>
<path d="M34 46V44H18V46H34Z" fill="black"/>
<path d="M74 40V38H56.02V40H74Z" fill="black"/>
<path d="M70 76V74H40V76H70Z" fill="black"/>
<path d="M38 48V44H36V48H38Z" fill="black"/>
<path d="M36 74H40V72H36V74Z" fill="black"/>
<path d="M40 44V40H38V44H40Z" fill="black"/>
<path d="M42 40V36H40V40H42Z" fill="black"/>
<path d="M44 36V32H42V36H44Z" fill="black"/>
<path d="M46 32V28H44V32H46Z" fill="black"/>
<path d="M58 34V30H56V34H58Z" fill="black"/>
<path d="M56 38V34H54V38H56Z" fill="black"/>
<path d="M74 42H78V40H74V42Z" fill="black"/>
<path d="M74 58V66H76V58H74Z" fill="black"/>
<path d="M76 50V58H78V50H76Z" fill="black"/>
<path d="M78 42V50H80V42H78Z" fill="black"/>
<path d="M72 74V72H70V74H72Z" fill="black"/>
<path d="M72 66V72H74V66H72Z" fill="black"/>
<path d="M48 18H54V16H48V18Z" fill="black"/>
<path d="M48 28V18H46V28H48Z" fill="black"/>
<path d="M56 22V18H54V22H56Z" fill="black"/>
<path d="M58 30V22H56V30H58Z" fill="black"/>
<path d="M34 80V78H18V80H34Z" fill="black"/>
<path d="M36 46H34V78H36V46Z" fill="black"/>
<path d="M22 68V72H24V68H22Z" fill="black"/>
<path d="M28 68V72H30V68H28Z" fill="black"/>
<path d="M24 74H28V72H24V74Z" fill="black"/>
<path d="M28 66H24V68H28V66Z" fill="black"/>
</svg>
