<svg width="98" height="96" viewBox="0 0 98 96" fill="none" xmlns="http://www.w3.org/2000/svg">
<path d="M55.125 16H53.0833V20H55.125V16Z" fill="black"/>
<path d="M55.125 16H42.875V18H55.125V16Z" fill="black"/>
<path d="M60.2291 28H56.1458V30H60.2291V28Z" fill="black"/>
<path d="M59.2083 20H55.125V22H59.2083V20Z" fill="black"/>
<path d="M63.2917 28H60.2292V30H63.2917V28Z" fill="black"/>
<path d="M56.1458 30H52.0625V32H56.1458V30Z" fill="black"/>
<path d="M45.9375 30H41.8542V32H45.9375V30Z" fill="black"/>
<path d="M32.6667 26H30.625V28H32.6667V26Z" fill="black"/>
<path d="M52.0625 40H54.1042V38H52.0625V40Z" fill="black"/>
<path d="M50.0208 58H52.0625V42H50.0208V58Z" fill="black"/>
<path d="M58.1875 42H56.1458V44H58.1875V42Z" fill="black"/>
<path d="M52.0625 32H50.0208V42H52.0625V32Z" fill="black"/>
<path d="M53.0833 68V66H44.9166V68H53.0833Z" fill="black"/>
<path d="M53.0833 74V72H44.9166V74H53.0833Z" fill="black"/>
<path d="M55.125 80V78H42.875V80H55.125Z" fill="black"/>
<path d="M53.0833 64V62H44.9166V64H53.0833Z" fill="black"/>
<path d="M56.1459 44H54.1042V50H56.1459V44Z" fill="black"/>
<path d="M68.3959 44H66.3542V50H68.3959V44Z" fill="black"/>
<path d="M64.3125 54V52H58.1875V54H64.3125Z" fill="black"/>
<path d="M64.3125 42V40H58.1875V42H64.3125Z" fill="black"/>
<path d="M56.1458 52H58.1875V50H56.1458V52Z" fill="black"/>
<path d="M66.3542 42H64.3125V44H66.3542V42Z" fill="black"/>
<path d="M58.1875 36H54.1042V38H58.1875V36Z" fill="black"/>
<path d="M63.2917 36V34H58.1875V36H63.2917Z" fill="black"/>
<path d="M65.3334 36H63.2917V38H65.3334V36Z" fill="black"/>
<path d="M67.375 38H65.3333V40H67.375V38Z" fill="black"/>
<path d="M70.4375 40H67.375V42H70.4375V40Z" fill="black"/>
<path d="M64.3125 52H66.3542V50H64.3125V52Z" fill="black"/>
<path d="M60.2292 48H58.1875V50H60.2292V48Z" fill="black"/>
<path d="M64.3125 44H62.2708V46H64.3125V44Z" fill="black"/>
<path d="M60.2292 44H58.1875V46H60.2292V44Z" fill="black"/>
<path d="M64.3125 50V48H62.2708V50H64.3125Z" fill="black"/>
<path d="M62.2708 48V46H60.2291V48H62.2708Z" fill="black"/>
<path d="M53.0833 66H55.125V64H53.0833V66Z" fill="black"/>
<path d="M66.3542 66H64.3125V68H66.3542V66Z" fill="black"/>
<path d="M68.3959 60H66.3542V66H68.3959V60Z" fill="black"/>
<path d="M75.5417 52H73.5V56H75.5417V52Z" fill="black"/>
<path d="M79.625 42H77.5833V52H79.625V42Z" fill="black"/>
<path d="M79.625 42H75.5417V44H79.625V42Z" fill="black"/>
<path d="M79.625 50H75.5417V52H79.625V50Z" fill="black"/>
<path d="M73.5 56H71.4583V58H73.5V56Z" fill="black"/>
<path d="M71.4583 40H73.5V34H71.4583V40Z" fill="black"/>
<path d="M73.5 42H75.5417V40H73.5V42Z" fill="black"/>
<path d="M26.5417 36H24.5V40H26.5417V36Z" fill="black"/>
<path d="M24.5 40H22.4583V42H24.5V40Z" fill="black"/>
<path d="M70.4375 52H68.3958V60H70.4375V52Z" fill="black"/>
<path d="M70.4375 52H72.4792V42H70.4375V52Z" fill="black"/>
<path d="M60.2292 74H57.1667V76H60.2292V74Z" fill="black"/>
<path d="M62.2709 72H60.2292V74H62.2709V72Z" fill="black"/>
<path d="M64.3125 68H62.2708V72H64.3125V68Z" fill="black"/>
<path d="M63.2916 22H59.2083V24H63.2916V22Z" fill="black"/>
<path d="M65.3334 24H63.2917V26H65.3334V24Z" fill="black"/>
<path d="M67.375 26H65.3333V28H67.375V26Z" fill="black"/>
<path d="M69.4167 28H67.375V30H69.4167V28Z" fill="black"/>
<path d="M71.4584 30H69.4167V34H71.4584V30Z" fill="black"/>
<path d="M42.875 20H44.9167V16H42.875V20Z" fill="black"/>
<path d="M37.7708 30H41.8542V28H37.7708V30Z" fill="black"/>
<path d="M38.7917 22H42.875V20H38.7917V22Z" fill="black"/>
<path d="M34.7083 30H37.7708V28H34.7083V30Z" fill="black"/>
<path d="M45.9375 38H43.8958V40H45.9375V38Z" fill="black"/>
<path d="M47.9792 42H45.9375V58H47.9792V42Z" fill="black"/>
<path d="M39.8125 44H41.8542V42H39.8125V44Z" fill="black"/>
<path d="M45.9375 42H47.9792V32H45.9375V42Z" fill="black"/>
<path d="M41.8542 50H43.8958V44H41.8542V50Z" fill="black"/>
<path d="M29.6041 50H31.6458V44H29.6041V50Z" fill="black"/>
<path d="M39.8125 54V52H33.6875V54H39.8125Z" fill="black"/>
<path d="M39.8125 42V40H33.6875V42H39.8125Z" fill="black"/>
<path d="M41.8542 50H39.8125V52H41.8542V50Z" fill="black"/>
<path d="M50.0208 58H47.9792V60H50.0208V58Z" fill="black"/>
<path d="M31.6458 44H33.6875V42H31.6458V44Z" fill="black"/>
<path d="M39.8125 38H43.8958V36H39.8125V38Z" fill="black"/>
<path d="M39.8125 36V34H34.7083V36H39.8125Z" fill="black"/>
<path d="M32.6666 38H34.7083V36H32.6666V38Z" fill="black"/>
<path d="M33.6875 50H31.6458V52H33.6875V50Z" fill="black"/>
<path d="M37.7708 48H39.8125V46H37.7708V48Z" fill="black"/>
<path d="M33.6875 48H35.7292V46H33.6875V48Z" fill="black"/>
<path d="M35.7291 46H37.7708V44H35.7291V46Z" fill="black"/>
<path d="M37.7708 50V48H35.7291V50H37.7708Z" fill="black"/>
<path d="M44.9167 64H42.875V66H44.9167V64Z" fill="black"/>
<path d="M31.6458 68H33.6875V66H31.6458V68Z" fill="black"/>
<path d="M29.6041 66H31.6458V60H29.6041V66Z" fill="black"/>
<path d="M22.4583 56H24.5V52H22.4583V56Z" fill="black"/>
<path d="M18.375 52H20.4167V42H18.375V52Z" fill="black"/>
<path d="M18.375 44H22.4583V42H18.375V44Z" fill="black"/>
<path d="M18.375 52H22.4583V50H18.375V52Z" fill="black"/>
<path d="M24.5 58H26.5417V56H24.5V58Z" fill="black"/>
<path d="M27.5625 70H29.6042V68H27.5625V70Z" fill="black"/>
<path d="M29.6041 74H31.6458V70H29.6041V74Z" fill="black"/>
<path d="M70.4375 68H68.3958V70H70.4375V68Z" fill="black"/>
<path d="M72.4792 64H70.4375V68H72.4792V64Z" fill="black"/>
<path d="M27.5625 64H25.5208V68H27.5625V64Z" fill="black"/>
<path d="M68.3959 70H66.3542V74H68.3959V70Z" fill="black"/>
<path d="M27.5625 60H29.6042V52H27.5625V60Z" fill="black"/>
<path d="M27.5625 42H25.5208V52H27.5625V42Z" fill="black"/>
<path d="M37.7708 76H40.8333V74H37.7708V76Z" fill="black"/>
<path d="M35.7291 74H37.7708V72H35.7291V74Z" fill="black"/>
<path d="M57.1667 76H55.125V78H57.1667V76Z" fill="black"/>
<path d="M40.8333 78H42.875V76H40.8333V78Z" fill="black"/>
<path d="M33.6875 72H35.7292V68H33.6875V72Z" fill="black"/>
<path d="M34.7084 24H38.7917V22H34.7084V24Z" fill="black"/>
<path d="M32.6666 26H34.7083V24H32.6666V26Z" fill="black"/>
<path d="M28.5833 30H30.625V28H28.5833V30Z" fill="black"/>
<path d="M32.6666 32H34.7083V30H32.6666V32Z" fill="black"/>
<path d="M63.2916 32H65.3333V30H63.2916V32Z" fill="black"/>
<path d="M65.3333 34H67.375V32H65.3333V34Z" fill="black"/>
<path d="M67.375 36H69.4167V34H67.375V36Z" fill="black"/>
<path d="M30.625 34H32.6667V32H30.625V34Z" fill="black"/>
<path d="M28.5833 36H30.625V34H28.5833V36Z" fill="black"/>
<path d="M30.625 40H32.6667V38H30.625V40Z" fill="black"/>
<path d="M27.5625 42H30.625V40H27.5625V42Z" fill="black"/>
<path d="M26.5416 34H28.5833V30H26.5416V34Z" fill="black"/>
<path d="M24.5 36H26.5417V34H24.5V36Z" fill="black"/>
</svg>
