<svg width="97" height="96" viewBox="0 0 97 96" fill="none" xmlns="http://www.w3.org/2000/svg">
<path d="M54.5625 16H52.5417V20H54.5625V16Z" fill="black"/>
<path d="M54.5625 16H42.4375V18H54.5625V16Z" fill="black"/>
<path d="M59.6146 28H55.5729V30H59.6146V28Z" fill="black"/>
<path d="M58.6042 20H54.5625V22H58.6042V20Z" fill="black"/>
<path d="M62.6458 28H59.6146V30H62.6458V28Z" fill="black"/>
<path d="M55.5729 30H51.5312V32H55.5729V30Z" fill="black"/>
<path d="M45.4688 30H41.4271V32H45.4688V30Z" fill="black"/>
<path d="M32.3333 26H30.3125V28H32.3333V26Z" fill="black"/>
<path d="M51.5312 40H53.5521V38H51.5312V40Z" fill="black"/>
<path d="M49.5104 58H51.5312V42H49.5104V58Z" fill="black"/>
<path d="M57.5938 42H55.5729V44H57.5938V42Z" fill="black"/>
<path d="M51.5313 32H49.5104V42H51.5313V32Z" fill="black"/>
<path d="M52.5417 68V66H44.4584V68H52.5417Z" fill="black"/>
<path d="M52.5417 74V72H44.4584V74H52.5417Z" fill="black"/>
<path d="M54.5625 80V78H42.4375V80H54.5625Z" fill="black"/>
<path d="M52.5417 64V62H44.4584V64H52.5417Z" fill="black"/>
<path d="M55.5729 44H53.5521V50H55.5729V44Z" fill="black"/>
<path d="M67.698 44H65.6771V50H67.698V44Z" fill="black"/>
<path d="M63.6562 54V52H57.5938V54H63.6562Z" fill="black"/>
<path d="M63.6562 42V40H57.5938V42H63.6562Z" fill="black"/>
<path d="M55.5729 52H57.5938V50H55.5729V52Z" fill="black"/>
<path d="M65.6771 42H63.6562V44H65.6771V42Z" fill="black"/>
<path d="M57.5937 36H53.5521V38H57.5937V36Z" fill="black"/>
<path d="M62.6458 36V34H57.5937V36H62.6458Z" fill="black"/>
<path d="M64.6666 36H62.6458V38H64.6666V36Z" fill="black"/>
<path d="M66.6875 38H64.6666V40H66.6875V38Z" fill="black"/>
<path d="M69.7188 40H66.6875V42H69.7188V40Z" fill="black"/>
<path d="M63.6563 52H65.6771V50H63.6563V52Z" fill="black"/>
<path d="M52.5417 66H54.5625V64H52.5417V66Z" fill="black"/>
<path d="M65.6771 66H63.6562V68H65.6771V66Z" fill="black"/>
<path d="M67.698 60H65.6771V66H67.698V60Z" fill="black"/>
<path d="M74.7708 52H72.75V56H74.7708V52Z" fill="black"/>
<path d="M78.8125 42H76.7916V52H78.8125V42Z" fill="black"/>
<path d="M78.8125 42H74.7709V44H78.8125V42Z" fill="black"/>
<path d="M78.8125 50H74.7709V52H78.8125V50Z" fill="black"/>
<path d="M72.75 56H70.7291V58H72.75V56Z" fill="black"/>
<path d="M70.7292 40H72.75V34H70.7292V40Z" fill="black"/>
<path d="M72.75 42H74.7709V40H72.75V42Z" fill="black"/>
<path d="M26.2708 36H24.25V40H26.2708V36Z" fill="black"/>
<path d="M24.25 40H22.2291V42H24.25V40Z" fill="black"/>
<path d="M69.7187 52H67.6979V60H69.7187V52Z" fill="black"/>
<path d="M69.7188 52H71.7396V42H69.7188V52Z" fill="black"/>
<path d="M59.6146 74H56.5833V76H59.6146V74Z" fill="black"/>
<path d="M61.6354 72H59.6146V74H61.6354V72Z" fill="black"/>
<path d="M63.6563 68H61.6354V72H63.6563V68Z" fill="black"/>
<path d="M62.6458 22H58.6042V24H62.6458V22Z" fill="black"/>
<path d="M64.6666 24H62.6458V26H64.6666V24Z" fill="black"/>
<path d="M66.6875 26H64.6666V28H66.6875V26Z" fill="black"/>
<path d="M68.7083 28H66.6875V30H68.7083V28Z" fill="black"/>
<path d="M70.7292 30H68.7084V34H70.7292V30Z" fill="black"/>
<path d="M42.4375 20H44.4584V16H42.4375V20Z" fill="black"/>
<path d="M37.3855 30H41.4271V28H37.3855V30Z" fill="black"/>
<path d="M38.3958 22H42.4375V20H38.3958V22Z" fill="black"/>
<path d="M34.3541 30H37.3854V28H34.3541V30Z" fill="black"/>
<path d="M45.4687 38H43.4479V40H45.4687V38Z" fill="black"/>
<path d="M47.4896 42H45.4688V58H47.4896V42Z" fill="black"/>
<path d="M39.4063 44H41.4271V42H39.4063V44Z" fill="black"/>
<path d="M45.4688 42H47.4896V32H45.4688V42Z" fill="black"/>
<path d="M41.427 50H43.4479V44H41.427V50Z" fill="black"/>
<path d="M29.302 50H31.3229V44H29.302V50Z" fill="black"/>
<path d="M39.4062 54V52H33.3438V54H39.4062Z" fill="black"/>
<path d="M39.4062 42V40H33.3438V42H39.4062Z" fill="black"/>
<path d="M41.4271 50H39.4062V52H41.4271V50Z" fill="black"/>
<path d="M49.5105 58H47.4896V60H49.5105V58Z" fill="black"/>
<path d="M31.3229 44H33.3438V42H31.3229V44Z" fill="black"/>
<path d="M39.4062 38H43.4479V36H39.4062V38Z" fill="black"/>
<path d="M39.4062 36V34H34.3542V36H39.4062Z" fill="black"/>
<path d="M32.3333 38H34.3541V36H32.3333V38Z" fill="black"/>
<path d="M33.3437 50H31.3229V52H33.3437V50Z" fill="black"/>
<path d="M44.4583 64H42.4375V66H44.4583V64Z" fill="black"/>
<path d="M31.3229 68H33.3438V66H31.3229V68Z" fill="black"/>
<path d="M29.302 66H31.3229V60H29.302V66Z" fill="black"/>
<path d="M22.2292 56H24.25V52H22.2292V56Z" fill="black"/>
<path d="M18.1875 52H20.2084V42H18.1875V52Z" fill="black"/>
<path d="M18.1875 44H22.2291V42H18.1875V44Z" fill="black"/>
<path d="M18.1875 52H22.2291V50H18.1875V52Z" fill="black"/>
<path d="M24.25 58H26.2709V56H24.25V58Z" fill="black"/>
<path d="M27.2813 70H29.3021V68H27.2813V70Z" fill="black"/>
<path d="M29.302 74H31.3229V70H29.302V74Z" fill="black"/>
<path d="M69.7187 68H67.6979V70H69.7187V68Z" fill="black"/>
<path d="M71.7396 64H69.7188V68H71.7396V64Z" fill="black"/>
<path d="M27.2812 64H25.2604V68H27.2812V64Z" fill="black"/>
<path d="M67.698 70H65.6771V74H67.698V70Z" fill="black"/>
<path d="M27.2813 60H29.3021V52H27.2813V60Z" fill="black"/>
<path d="M27.2812 42H25.2604V52H27.2812V42Z" fill="black"/>
<path d="M37.3854 76H40.4166V74H37.3854V76Z" fill="black"/>
<path d="M35.3645 74H37.3854V72H35.3645V74Z" fill="black"/>
<path d="M56.5833 76H54.5625V78H56.5833V76Z" fill="black"/>
<path d="M40.4167 78H42.4375V76H40.4167V78Z" fill="black"/>
<path d="M33.3438 72H35.3646V68H33.3438V72Z" fill="black"/>
<path d="M34.3542 24H38.3959V22H34.3542V24Z" fill="black"/>
<path d="M32.3333 26H34.3541V24H32.3333V26Z" fill="black"/>
<path d="M28.2917 30H30.3125V28H28.2917V30Z" fill="black"/>
<path d="M32.3333 32H34.3541V30H32.3333V32Z" fill="black"/>
<path d="M62.6458 32H64.6666V30H62.6458V32Z" fill="black"/>
<path d="M64.6667 34H66.6875V32H64.6667V34Z" fill="black"/>
<path d="M66.6875 36H68.7084V34H66.6875V36Z" fill="black"/>
<path d="M30.3125 34H32.3334V32H30.3125V34Z" fill="black"/>
<path d="M28.2917 36H30.3125V34H28.2917V36Z" fill="black"/>
<path d="M30.3125 40H32.3334V38H30.3125V40Z" fill="black"/>
<path d="M27.2812 42H30.3125V40H27.2812V42Z" fill="black"/>
<path d="M26.2708 34H28.2916V30H26.2708V34Z" fill="black"/>
<path d="M24.25 36H26.2709V34H24.25V36Z" fill="black"/>
<path d="M37.3854 50H39.4062V48H37.3854V50Z" fill="black"/>
<path d="M33.3438 46H35.3646V44H33.3438V46Z" fill="black"/>
<path d="M37.3854 46H39.4062V44H37.3854V46Z" fill="black"/>
<path d="M35.3646 50V48H33.3438V50H35.3646Z" fill="black"/>
<path d="M37.3854 48V46H35.3645V48H37.3854Z" fill="black"/>
<path d="M61.6354 48H63.6562V46H61.6354V48Z" fill="black"/>
<path d="M57.5937 48H59.6146V46H57.5937V48Z" fill="black"/>
<path d="M59.6146 46H61.6354V44H59.6146V46Z" fill="black"/>
<path d="M61.6354 50V48H59.6146V50H61.6354Z" fill="black"/>
</svg>
