<svg width="96" height="96" viewBox="0 0 96 96" fill="none" xmlns="http://www.w3.org/2000/svg">
<path d="M65.98 80V78H29.98V80H65.98Z" fill="black"/>
<path d="M65.98 74V72H29.98V74H65.98Z" fill="black"/>
<path d="M53 44V42H42.98V44H53Z" fill="black"/>
<path d="M30.98 42.02V40.02H24.98V42.02H30.98Z" fill="black"/>
<path d="M30.96 26V24H25V26H30.96Z" fill="black"/>
<path d="M52.98 64V62H42.98V64H52.98Z" fill="black"/>
<path d="M56.98 58H58.98V47.98H56.98V58Z" fill="black"/>
<path d="M36.98 58H38.98V48H36.98V58Z" fill="black"/>
<path d="M30 74H28V78H30V74Z" fill="black"/>
<path d="M45 64H43V72H45V64Z" fill="black"/>
<path d="M53 64H51V72H53V64Z" fill="black"/>
<path d="M68 74H66V78H68V74Z" fill="black"/>
<path d="M40.98 48V46H38.98V48H40.98Z" fill="black"/>
<path d="M34.98 44V42H32.98V44H34.98Z" fill="black"/>
<path d="M33 42.02V40.02H31V42.02H33Z" fill="black"/>
<path d="M36.98 46V44H34.98V46H36.98Z" fill="black"/>
<path d="M38.96 48V46H36.96V48H38.96Z" fill="black"/>
<path d="M42.98 46V44H40.98V46H42.98Z" fill="black"/>
<path d="M40.98 42V40H38.98V42H40.98Z" fill="black"/>
<path d="M42.98 44V42H40.98V44H42.98Z" fill="black"/>
<path d="M36.98 38V36H34.98V38H36.98Z" fill="black"/>
<path d="M38.98 40V38H36.98V40H38.98Z" fill="black"/>
<path d="M44.98 26V24H40.98V26H44.98Z" fill="black"/>
<path d="M40.98 27.98V25.98H36.98V27.98H40.98Z" fill="black"/>
<path d="M46.98 30V28H42.98V30H46.98Z" fill="black"/>
<path d="M42.98 32V30H38.98V32H42.98Z" fill="black"/>
<path d="M48.98 24V20H46.98V24H48.98Z" fill="black"/>
<path d="M50.98 20V18H48.98V20H50.98Z" fill="black"/>
<path d="M55.98 20H57.98V18H55.98V20Z" fill="black"/>
<path d="M57.98 26H59.98V19.98H57.98V26Z" fill="black"/>
<path d="M53.5 18V16H51V18H53.5Z" fill="black"/>
<path d="M56 18V16H53.5V18H56Z" fill="black"/>
<path d="M56 25.98V27.98H58V25.98H56Z" fill="black"/>
<path d="M49 25.98V27.98H51V25.98H49Z" fill="black"/>
<path d="M47 25.98V27.98H49V25.98H47Z" fill="black"/>
<path d="M45 22V24H47V22H45Z" fill="black"/>
<path d="M37 31.98V33.98H39V31.98H37Z" fill="black"/>
<path d="M47 23.98V25.98H49V23.98H47Z" fill="black"/>
<path d="M66 31.98V33.98H70V31.98H66Z" fill="black"/>
<path d="M70 34V36H74V34H70Z" fill="black"/>
<path d="M68 27.98V29.98H72V27.98H68Z" fill="black"/>
<path d="M76 44V46H78V44H76Z" fill="black"/>
<path d="M78 46V48H80V46H78Z" fill="black"/>
<path d="M78 48V50H80V48H78Z" fill="black"/>
<path d="M78 49.98V51.98H80V49.98H78Z" fill="black"/>
<path d="M70 48H72V46H70V48Z" fill="black"/>
<path d="M70 50H72V48H70V50Z" fill="black"/>
<path d="M70 52H72V50H70V52Z" fill="black"/>
<path d="M72 46H74V44H72V46Z" fill="black"/>
<path d="M75.98 36H73.98V44H75.98V36Z" fill="black"/>
<path d="M53.48 28V30H55.98V28H53.48Z" fill="black"/>
<path d="M62 29.98V31.98H66V29.98H62Z" fill="black"/>
<path d="M58 27.98V29.98H62V27.98H58Z" fill="black"/>
<path d="M60 23.98V25.98H64V23.98H60Z" fill="black"/>
<path d="M64 25.98V27.98H68V25.98H64Z" fill="black"/>
<path d="M50.98 28V30H53.48V28H50.98Z" fill="black"/>
<path d="M20.98 38H22.98V36H20.98V38Z" fill="black"/>
<path d="M22.98 40H24.98V38H22.98V40Z" fill="black"/>
<path d="M18.98 36H20.98V30H18.98V36Z" fill="black"/>
<path d="M34.98 36H36.98V30H34.98V36Z" fill="black"/>
<path d="M23 25.98V27.98H25V25.98H23Z" fill="black"/>
<path d="M32.98 28V30H34.98V28H32.98Z" fill="black"/>
<path d="M20.98 28V30H22.98V28H20.98Z" fill="black"/>
<path d="M36.98 28H34.98V30H36.98V28Z" fill="black"/>
<path d="M33 25.98H31V27.98H33V25.98Z" fill="black"/>
<path d="M32.98 38H30.98V40H32.98V38Z" fill="black"/>
<path d="M35 38V36H33V38H35Z" fill="black"/>
<path d="M52.98 46H54.98V44H52.98V46Z" fill="black"/>
<path d="M55 48H57V46H55V48Z" fill="black"/>
<path d="M55 58V60H57V58H55Z" fill="black"/>
<path d="M53 60V62H55V60H53Z" fill="black"/>
<path d="M42.98 60H40.98V62H42.98V60Z" fill="black"/>
<path d="M40.98 58H38.98V60H40.98V58Z" fill="black"/>
<path d="M76 31.98V33.98H78V31.98H76Z" fill="black"/>
<path d="M76 33.98V35.98H78V33.98H76Z" fill="black"/>
<path d="M74 30H72V32H74V30Z" fill="black"/>
<path d="M75.98 30H73.98V32H75.98V30Z" fill="black"/>
</svg>
