<svg width="96" height="96" viewBox="0 0 96 96" fill="none" xmlns="http://www.w3.org/2000/svg">
<path d="M33 48H39V46H33V48Z" fill="black"/>
<path d="M54 16H52V20H54V16Z" fill="black"/>
<path d="M54 16H42V18H54V16Z" fill="black"/>
<path d="M59 28H55V30H59V28Z" fill="black"/>
<path d="M58 20H54V22H58V20Z" fill="black"/>
<path d="M62 28H59V30H62V28Z" fill="black"/>
<path d="M55 30H51V32H55V30Z" fill="black"/>
<path d="M45 30H41V32H45V30Z" fill="black"/>
<path d="M32 26H30V28H32V26Z" fill="black"/>
<path d="M51 40H53V38H51V40Z" fill="black"/>
<path d="M49 58H51V42H49V58Z" fill="black"/>
<path d="M57 42H55V44H57V42Z" fill="black"/>
<path d="M51 32H49V42H51V32Z" fill="black"/>
<path d="M52 68V66H44V68H52Z" fill="black"/>
<path d="M52 74V72H44V74H52Z" fill="black"/>
<path d="M54 80V78H42V80H54Z" fill="black"/>
<path d="M52 64V62H44V64H52Z" fill="black"/>
<path d="M55 44H53V50H55V44Z" fill="black"/>
<path d="M67 44H65V50H67V44Z" fill="black"/>
<path d="M63 54V52H57V54H63Z" fill="black"/>
<path d="M63 42V40H57V42H63Z" fill="black"/>
<path d="M55 52H57V50H55V52Z" fill="black"/>
<path d="M65 42H63V44H65V42Z" fill="black"/>
<path d="M57 36H53V38H57V36Z" fill="black"/>
<path d="M62 36V34H57V36H62Z" fill="black"/>
<path d="M64 36H62V38H64V36Z" fill="black"/>
<path d="M66 38H64V40H66V38Z" fill="black"/>
<path d="M69 40H66V42H69V40Z" fill="black"/>
<path d="M63 52H65V50H63V52Z" fill="black"/>
<path d="M63 46H61V48H63V46Z" fill="black"/>
<path d="M59 46H57V48H59V46Z" fill="black"/>
<path d="M61 50V44H59V50H61Z" fill="black"/>
<path d="M52 66H54V64H52V66Z" fill="black"/>
<path d="M65 66H63V68H65V66Z" fill="black"/>
<path d="M67 60H65V66H67V60Z" fill="black"/>
<path d="M74 52H72V56H74V52Z" fill="black"/>
<path d="M78 42H76V52H78V42Z" fill="black"/>
<path d="M78 42H74V44H78V42Z" fill="black"/>
<path d="M78 50H74V52H78V50Z" fill="black"/>
<path d="M72 56H70V58H72V56Z" fill="black"/>
<path d="M70 40H72V34H70V40Z" fill="black"/>
<path d="M72 42H74V40H72V42Z" fill="black"/>
<path d="M26 36H24V40H26V36Z" fill="black"/>
<path d="M24 40H22V42H24V40Z" fill="black"/>
<path d="M69 52H67V60H69V52Z" fill="black"/>
<path d="M69 52H71V42H69V52Z" fill="black"/>
<path d="M59 74H56V76H59V74Z" fill="black"/>
<path d="M61 72H59V74H61V72Z" fill="black"/>
<path d="M63 68H61V72H63V68Z" fill="black"/>
<path d="M62 22H58V24H62V22Z" fill="black"/>
<path d="M64 24H62V26H64V24Z" fill="black"/>
<path d="M66 26H64V28H66V26Z" fill="black"/>
<path d="M68 28H66V30H68V28Z" fill="black"/>
<path d="M70 30H68V34H70V30Z" fill="black"/>
<path d="M42 20H44V16H42V20Z" fill="black"/>
<path d="M37 30H41V28H37V30Z" fill="black"/>
<path d="M38 22H42V20H38V22Z" fill="black"/>
<path d="M34 30H37V28H34V30Z" fill="black"/>
<path d="M45 38H43V40H45V38Z" fill="black"/>
<path d="M47 42H45V58H47V42Z" fill="black"/>
<path d="M39 44H41V42H39V44Z" fill="black"/>
<path d="M45 42H47V32H45V42Z" fill="black"/>
<path d="M41 50H43V44H41V50Z" fill="black"/>
<path d="M29 50H31V44H29V50Z" fill="black"/>
<path d="M39 54V52H33V54H39Z" fill="black"/>
<path d="M39 42V40H33V42H39Z" fill="black"/>
<path d="M41 50H39V52H41V50Z" fill="black"/>
<path d="M49 58H47V60H49V58Z" fill="black"/>
<path d="M31 44H33V42H31V44Z" fill="black"/>
<path d="M39 38H43V36H39V38Z" fill="black"/>
<path d="M39 36V34H34V36H39Z" fill="black"/>
<path d="M32 38H34V36H32V38Z" fill="black"/>
<path d="M33 50H31V52H33V50Z" fill="black"/>
<path d="M44 64H42V66H44V64Z" fill="black"/>
<path d="M31 68H33V66H31V68Z" fill="black"/>
<path d="M29 66H31V60H29V66Z" fill="black"/>
<path d="M22 56H24V52H22V56Z" fill="black"/>
<path d="M18 52H20V42H18V52Z" fill="black"/>
<path d="M18 44H22V42H18V44Z" fill="black"/>
<path d="M18 52H22V50H18V52Z" fill="black"/>
<path d="M24 58H26V56H24V58Z" fill="black"/>
<path d="M27 70H29V68H27V70Z" fill="black"/>
<path d="M29 74H31V70H29V74Z" fill="black"/>
<path d="M69 68H67V70H69V68Z" fill="black"/>
<path d="M71 64H69V68H71V64Z" fill="black"/>
<path d="M27 64H25V68H27V64Z" fill="black"/>
<path d="M67 70H65V74H67V70Z" fill="black"/>
<path d="M27 60H29V52H27V60Z" fill="black"/>
<path d="M27 42H25V52H27V42Z" fill="black"/>
<path d="M37 76H40V74H37V76Z" fill="black"/>
<path d="M35 74H37V72H35V74Z" fill="black"/>
<path d="M56 76H54V78H56V76Z" fill="black"/>
<path d="M40 78H42V76H40V78Z" fill="black"/>
<path d="M33 72H35V68H33V72Z" fill="black"/>
<path d="M34 24H38V22H34V24Z" fill="black"/>
<path d="M32 26H34V24H32V26Z" fill="black"/>
<path d="M28 30H30V28H28V30Z" fill="black"/>
<path d="M32 32H34V30H32V32Z" fill="black"/>
<path d="M62 32H64V30H62V32Z" fill="black"/>
<path d="M64 34H66V32H64V34Z" fill="black"/>
<path d="M66 36H68V34H66V36Z" fill="black"/>
<path d="M30 34H32V32H30V34Z" fill="black"/>
<path d="M28 36H30V34H28V36Z" fill="black"/>
<path d="M30 40H32V38H30V40Z" fill="black"/>
<path d="M27 42H30V40H27V42Z" fill="black"/>
<path d="M26 34H28V30H26V34Z" fill="black"/>
<path d="M24 36H26V34H24V36Z" fill="black"/>
</svg>
