<svg width="96" height="96" viewBox="0 0 96 96" fill="none" xmlns="http://www.w3.org/2000/svg">
<path d="M52 56V54H44.02V56H52Z" fill="black"/>
<path d="M52 44V42H44V44H52Z" fill="black"/>
<path d="M52 50V48H44V50H52Z" fill="black"/>
<path d="M44 52V50H40V52H44Z" fill="black"/>
<path d="M56 52V50H52V52H56Z" fill="black"/>
<path d="M44 46V44H38V46H44Z" fill="black"/>
<path d="M58 46V44H52V46H58Z" fill="black"/>
<path d="M44 58V56H42V58H44Z" fill="black"/>
<path d="M54 58V56H52V58H54Z" fill="black"/>
<path d="M48.96 62V60H46.96V62H48.96Z" fill="black"/>
<path d="M58 54V52H56V54H58Z" fill="black"/>
<path d="M60 48V46H58V48H60Z" fill="black"/>
<path d="M62 50V48H60V50H62Z" fill="black"/>
<path d="M36 50V48H34V50H36Z" fill="black"/>
<path d="M38 48V46H36V48H38Z" fill="black"/>
<path d="M40 54V52H38V54H40Z" fill="black"/>
<path d="M74 44H72V46H74V44Z" fill="black"/>
<path d="M76 46H74V48H76V46Z" fill="black"/>
<path d="M78 48H76V50H78V48Z" fill="black"/>
<path d="M80 50H78V52H80V50Z" fill="black"/>
<path d="M22 46H20V48H22V46Z" fill="black"/>
<path d="M20 48H18V50H20V48Z" fill="black"/>
<path d="M18 50H16V52H18V50Z" fill="black"/>
<path d="M72 42H70V44H72V42Z" fill="black"/>
<path d="M72 50H70V74H72V50Z" fill="black"/>
<path d="M26 50H24V74H26V50Z" fill="black"/>
<path d="M70 40H68V42H70V40Z" fill="black"/>
<path d="M68 38H66V40H68V38Z" fill="black"/>
<path d="M66 36H64V38H66V36Z" fill="black"/>
<path d="M64 34H62V36H64V34Z" fill="black"/>
<path d="M62 32H60V34H62V32Z" fill="black"/>
<path d="M60 30H58V32H60V30Z" fill="black"/>
<path d="M58 28H56V30H58V28Z" fill="black"/>
<path d="M56 26H54V28H56V26Z" fill="black"/>
<path d="M54 24H52V26H54V24Z" fill="black"/>
<path d="M52 22H50V24H52V22Z" fill="black"/>
<path d="M50 20H48V22H50V20Z" fill="black"/>
<path d="M70 74H26V76H70V74Z" fill="black"/>
<path d="M46 20V22H48V20H46Z" fill="black"/>
<path d="M44 22V24H46V22H44Z" fill="black"/>
<path d="M42 24V26H44V24H42Z" fill="black"/>
<path d="M40 26V28H42V26H40Z" fill="black"/>
<path d="M38 28V30H40V28H38Z" fill="black"/>
<path d="M36 30V32H38V30H36Z" fill="black"/>
<path d="M34 32V34H36V32H34Z" fill="black"/>
<path d="M32 34V36H34V34H32Z" fill="black"/>
<path d="M30 36V38H32V36H30Z" fill="black"/>
<path d="M28 38V40H30V38H28Z" fill="black"/>
<path d="M26 40V42H28V40H26Z" fill="black"/>
<path d="M24 42V44H26V42H24Z" fill="black"/>
<path d="M22 44V46H24V44H22Z" fill="black"/>
</svg>
