<svg width="96" height="96" viewBox="0 0 96 96" fill="none" xmlns="http://www.w3.org/2000/svg">
<path d="M34 74H36V72H34V74Z" fill="black"/>
<path d="M36 72H38V70H36V72Z" fill="black"/>
<path d="M32 74H34V72H32V74Z" fill="black"/>
<path d="M30 76H32V74H30V76Z" fill="black"/>
<path d="M28 78H30V76H28V78Z" fill="black"/>
<path d="M18 76H20V74H18V76Z" fill="black"/>
<path d="M24 60V58H22V60H24Z" fill="black"/>
<path d="M26 58V56H24V58H26Z" fill="black"/>
<path d="M22 62V60H20V62H22Z" fill="black"/>
<path d="M20 66V64H18V66H20Z" fill="black"/>
<path d="M22 68V66H20V68H22Z" fill="black"/>
<path d="M26 72V70H24V72H26Z" fill="black"/>
<path d="M28 76V72H26V76H28Z" fill="black"/>
<path d="M22 64V62H20V64H22Z" fill="black"/>
<path d="M18 74V70H16V74H18Z" fill="black"/>
<path d="M20 70V68H18V70H20Z" fill="black"/>
<path d="M24 74V72H20V74H24Z" fill="black"/>
<path d="M78 16H76V18H78V16Z" fill="black"/>
<path d="M78 18H76V20H78V18Z" fill="black"/>
<path d="M78 22H76V24H78V22Z" fill="black"/>
<path d="M78 20H76V22H78V20Z" fill="black"/>
<path d="M78 24H76V26H78V24Z" fill="black"/>
<path d="M78 26H76V28H78V26Z" fill="black"/>
<path d="M76 28H74V30H76V28Z" fill="black"/>
<path d="M76 30H74V32H76V30Z" fill="black"/>
<path d="M74 32H72V34H74V32Z" fill="black"/>
<path d="M74 34H72V36H74V34Z" fill="black"/>
<path d="M72 36H70V38H72V36Z" fill="black"/>
<path d="M72 38H70V40H72V38Z" fill="black"/>
<path d="M70 40H68V42H70V40Z" fill="black"/>
<path d="M66 44H64V46H66V44Z" fill="black"/>
<path d="M64 46H62V48H64V46Z" fill="black"/>
<path d="M62 48H60V50H62V48Z" fill="black"/>
<path d="M60 50H58V52H60V50Z" fill="black"/>
<path d="M56 60H54V62H56V60Z" fill="black"/>
<path d="M56 58H54V60H56V58Z" fill="black"/>
<path d="M56 62H54V64H56V62Z" fill="black"/>
<path d="M56 64H54V66H56V64Z" fill="black"/>
<path d="M56 66H54V68H56V66Z" fill="black"/>
<path d="M52 70V68H50V70H52Z" fill="black"/>
<path d="M54 70V68H52V70H54Z" fill="black"/>
<path d="M50 70V68H48V70H50Z" fill="black"/>
<path d="M48 72V70H46V72H48Z" fill="black"/>
<path d="M46 76V74H44V76H46Z" fill="black"/>
<path d="M46 74V72H44V74H46Z" fill="black"/>
<path d="M44 76V74H42V76H44Z" fill="black"/>
<path d="M42 76V74H40V76H42Z" fill="black"/>
<path d="M52 58H50V60H52V58Z" fill="black"/>
<path d="M54 56H52V58H54V56Z" fill="black"/>
<path d="M56 54H54V56H56V54Z" fill="black"/>
<path d="M58 52H56V54H58V52Z" fill="black"/>
<path d="M50 60H48V62H50V60Z" fill="black"/>
<path d="M48 62H46V64H48V62Z" fill="black"/>
<path d="M46 62H44V64H46V62Z" fill="black"/>
<path d="M42 64H40V66H42V64Z" fill="black"/>
<path d="M40 64H38V66H40V64Z" fill="black"/>
<path d="M40 68H38V70H40V68Z" fill="black"/>
<path d="M40 66H38V68H40V66Z" fill="black"/>
<path d="M40 70H38V72H40V70Z" fill="black"/>
<path d="M40 72H38V74H40V72Z" fill="black"/>
<path d="M44 64H42V66H44V64Z" fill="black"/>
<path d="M68 42H66V44H68V42Z" fill="black"/>
<path d="M74 16V18H76V16H74Z" fill="black"/>
<path d="M72 16V18H74V16H72Z" fill="black"/>
<path d="M70 16V18H72V16H70Z" fill="black"/>
<path d="M68 16V18H70V16H68Z" fill="black"/>
<path d="M66 16V18H68V16H66Z" fill="black"/>
<path d="M64 18V20H66V18H64Z" fill="black"/>
<path d="M62 18V20H64V18H62Z" fill="black"/>
<path d="M60 20V22H62V20H60Z" fill="black"/>
<path d="M58 20V22H60V20H58Z" fill="black"/>
<path d="M56 22V24H58V22H56Z" fill="black"/>
<path d="M60 26V28H62V26H60Z" fill="black"/>
<path d="M62 26V28H64V26H62Z" fill="black"/>
<path d="M60 36V38H62V36H60Z" fill="black"/>
<path d="M62 36V38H64V36H62Z" fill="black"/>
<path d="M68 30H66V32H68V30Z" fill="black"/>
<path d="M68 32H66V34H68V32Z" fill="black"/>
<path d="M66 28H64V30H66V28Z" fill="black"/>
<path d="M60 28H58V30H60V28Z" fill="black"/>
<path d="M66 34H64V36H66V34Z" fill="black"/>
<path d="M60 34H58V36H60V34Z" fill="black"/>
<path d="M46 48H44V50H46V48Z" fill="black"/>
<path d="M48 46H46V48H48V46Z" fill="black"/>
<path d="M50 44H48V46H50V44Z" fill="black"/>
<path d="M44 50H42V52H44V50Z" fill="black"/>
<path d="M42 52H40V54H42V52Z" fill="black"/>
<path d="M40 54H38V56H40V54Z" fill="black"/>
<path d="M38 56H36V58H38V56Z" fill="black"/>
<path d="M36 58H34V60H36V58Z" fill="black"/>
<path d="M34 60H32V62H34V60Z" fill="black"/>
<path d="M58 30H56V32H58V30Z" fill="black"/>
<path d="M58 32H56V34H58V32Z" fill="black"/>
<path d="M54 22V24H56V22H54Z" fill="black"/>
<path d="M52 24V26H54V24H52Z" fill="black"/>
<path d="M50 26V28H52V26H50Z" fill="black"/>
<path d="M48 28V30H50V28H48Z" fill="black"/>
<path d="M46 30V32H48V30H46Z" fill="black"/>
<path d="M44 32V34H46V32H44Z" fill="black"/>
<path d="M42 34V36H44V34H42Z" fill="black"/>
<path d="M40 36V38H42V36H40Z" fill="black"/>
<path d="M38 38V40H40V38H38Z" fill="black"/>
<path d="M34 38V40H36V38H34Z" fill="black"/>
<path d="M32 38V40H34V38H32Z" fill="black"/>
<path d="M30 38V40H32V38H30Z" fill="black"/>
<path d="M28 38V40H30V38H28Z" fill="black"/>
<path d="M26 38V40H28V38H26Z" fill="black"/>
<path d="M24 44H26V42H24V44Z" fill="black"/>
<path d="M24 42H26V40H24V42Z" fill="black"/>
<path d="M24 46H26V44H24V46Z" fill="black"/>
<path d="M22 48H24V46H22V48Z" fill="black"/>
<path d="M20 50H22V48H20V50Z" fill="black"/>
<path d="M18 50H20V48H18V50Z" fill="black"/>
<path d="M18 52H20V50H18V52Z" fill="black"/>
<path d="M18 54H20V52H18V54Z" fill="black"/>
<path d="M22 56H24V54H22V56Z" fill="black"/>
<path d="M20 56H22V54H20V56Z" fill="black"/>
<path d="M36 40V42H38V40H36Z" fill="black"/>
<path d="M34 42V44H36V42H34Z" fill="black"/>
<path d="M32 44V46H34V44H32Z" fill="black"/>
<path d="M30 46V48H32V46H30Z" fill="black"/>
<path d="M28 50V52H30V50H28Z" fill="black"/>
<path d="M28 52V54H30V52H28Z" fill="black"/>
<path d="M28 54V56H30V54H28Z" fill="black"/>
<path d="M30 54V60H32V54H30Z" fill="black"/>
<path d="M40 62H34V64H40V62Z" fill="black"/>
<path d="M26 54V56H28V54H26Z" fill="black"/>
<path d="M24 54V56H26V54H24Z" fill="black"/>
<path d="M30 48V50H32V48H30Z" fill="black"/>
</svg>
