<svg width="160" height="96" viewBox="0 0 160 96" fill="none" xmlns="http://www.w3.org/2000/svg">
<path d="M20 38H18V46H20V38Z" fill="black"/>
<path d="M30 38H28V46H30V38Z" fill="black"/>
<path d="M28 38V36H20V38H28Z" fill="black"/>
<path d="M28 48V46H20V48H28Z" fill="black"/>
<path d="M86 40H84V48H86V40Z" fill="black"/>
<path d="M96 40H94V48H96V40Z" fill="black"/>
<path d="M94 40V38H86V40H94Z" fill="black"/>
<path d="M94 50V48H86V50H94Z" fill="black"/>
<path d="M106 46H104V54H106V46Z" fill="black"/>
<path d="M116 46H114V54H116V46Z" fill="black"/>
<path d="M114 46V44H106V46H114Z" fill="black"/>
<path d="M114 56V54H106V56H114Z" fill="black"/>
<path d="M132 20H130V28H132V20Z" fill="black"/>
<path d="M142 20H140V28H142V20Z" fill="black"/>
<path d="M140 20V18H132V20H140Z" fill="black"/>
<path d="M140 30V28H132V30H140Z" fill="black"/>
<path d="M38 52H36V60H38V52Z" fill="black"/>
<path d="M48 52H46V60H48V52Z" fill="black"/>
<path d="M72.98 30H70.98V50H72.98V30Z" fill="black"/>
<path d="M91 49H89V67H91V49Z" fill="black"/>
<path d="M66 57V55H46V57H66Z" fill="black"/>
<path d="M122 73V71H96V73H122Z" fill="black"/>
<path d="M130 25V23H108V25H130Z" fill="black"/>
<path d="M25 47H23V66H25V47Z" fill="black"/>
<path d="M46 52V50H38V52H46Z" fill="black"/>
<path d="M26 68V66H22V68H26Z" fill="black"/>
<path d="M25.98 78V76H21.98V78H25.98Z" fill="black"/>
<path d="M27.98 73.98H29.98V69.98H27.98V73.98Z" fill="black"/>
<path d="M18 73.98H20V69.98H18V73.98Z" fill="black"/>
<path d="M46 62V60H38V62H46Z" fill="black"/>
<path d="M68 20H66V28H68V20Z" fill="black"/>
<path d="M77.98 20H75.98V28H77.98V20Z" fill="black"/>
<path d="M76 20V18H68V20H76Z" fill="black"/>
<path d="M76 30V28H68V30H76Z" fill="black"/>
<path d="M22 70V68H20V70H22Z" fill="black"/>
<path d="M22 76V74H20V76H22Z" fill="black"/>
<path d="M28 70V68H26V70H28Z" fill="black"/>
<path d="M27.98 76V74H25.98V76H27.98Z" fill="black"/>
<path d="M32 36V34H30V36H32Z" fill="black"/>
<path d="M34 34V32H32V34H34Z" fill="black"/>
<path d="M36 32V30H34V32H36Z" fill="black"/>
<path d="M38 20H36V28H38V20Z" fill="black"/>
<path d="M48 20H46V28H48V20Z" fill="black"/>
<path d="M46 20.02V18.02H38V20.02H46Z" fill="black"/>
<path d="M46 30V28H38V30H46Z" fill="black"/>
<path d="M74 52V50H70V52H74Z" fill="black"/>
<path d="M73.98 61.98V59.98H69.98V61.98H73.98Z" fill="black"/>
<path d="M76 58H78V54H76V58Z" fill="black"/>
<path d="M65.98 58H67.98V54H65.98V58Z" fill="black"/>
<path d="M70 54.02V52.02H68V54.02H70Z" fill="black"/>
<path d="M69.98 60V58H67.98V60H69.98Z" fill="black"/>
<path d="M75.98 54V52H73.98V54H75.98Z" fill="black"/>
<path d="M75.98 60V58H73.98V60H75.98Z" fill="black"/>
<path d="M92 68V66H88V68H92Z" fill="black"/>
<path d="M92 78V76H88V78H92Z" fill="black"/>
<path d="M94 74H96V70H94V74Z" fill="black"/>
<path d="M84 74H86V70H84V74Z" fill="black"/>
<path d="M88 70V68H86V70H88Z" fill="black"/>
<path d="M88 76V74H86V76H88Z" fill="black"/>
<path d="M94 70V68H92V70H94Z" fill="black"/>
<path d="M94 76V74H92V76H94Z" fill="black"/>
<path d="M104 20V18H100V20H104Z" fill="black"/>
<path d="M104 30V28H100V30H104Z" fill="black"/>
<path d="M106 26H108V22H106V26Z" fill="black"/>
<path d="M96 26H98V22H96V26Z" fill="black"/>
<path d="M100 22V20H98V22H100Z" fill="black"/>
<path d="M100 28V26H98V28H100Z" fill="black"/>
<path d="M106 22V20H104V22H106Z" fill="black"/>
<path d="M106 28V26H104V28H106Z" fill="black"/>
<path d="M130 68V66H126V68H130Z" fill="black"/>
<path d="M130 78V76H126V78H130Z" fill="black"/>
<path d="M132 74H134V70H132V74Z" fill="black"/>
<path d="M122 74H124V70H122V74Z" fill="black"/>
<path d="M126 70V68H124V70H126Z" fill="black"/>
<path d="M126 76V74H124V76H126Z" fill="black"/>
<path d="M132 70V68H130V70H132Z" fill="black"/>
<path d="M132 76V74H130V76H132Z" fill="black"/>
<path d="M118 44V42H116V44H118Z" fill="black"/>
<path d="M120 42V40H118V42H120Z" fill="black"/>
<path d="M122 40V38H120V40H122Z" fill="black"/>
<path d="M124 38V36H122V38H124Z" fill="black"/>
<path d="M126 36V34H124V36H126Z" fill="black"/>
<path d="M128 34V32H126V34H128Z" fill="black"/>
<path d="M130 32V30H128V32H130Z" fill="black"/>
</svg>
