<svg width="1614" height="390" viewBox="0 0 1614 390" fill="none" xmlns="http://www.w3.org/2000/svg">
<g clip-path="url(#clip0_3574_147134)">
<path d="M207.389 40.7016C114.117 40.7016 44.6811 107.029 44.6811 196.155C44.6811 281.655 120.853 347.464 213.089 350.055L348.334 226.21V213.255H168.008V178.019H361.807V261.964L224.489 387.364C98.0535 387.364 3.7449 305.491 3.7449 196.155C3.7449 87.3378 91.8354 4.42905 207.908 4.42905C269.053 4.42905 319.316 27.7471 347.816 52.1015V98.7377C314.653 64.5378 262.316 40.7016 207.389 40.7016ZM551.402 387.364C463.312 387.364 401.648 323.109 401.648 233.982V14.2745H442.066V233.982C442.066 304.455 485.075 351.091 551.402 351.091C617.729 351.091 660.738 304.455 660.738 233.982V14.2745H701.156V233.982C701.156 323.109 639.493 387.364 551.402 387.364ZM792.871 14.2745V377H752.453V14.2745H792.871ZM849.106 14.2745H969.324C1094.72 14.2745 1167.79 85.265 1167.79 195.119C1167.79 304.973 1094.72 377 969.324 377H849.106V14.2745ZM889.524 341.764H975.542C1065.71 341.764 1126.85 287.873 1126.85 195.637C1126.85 103.401 1065.71 49.5107 975.542 49.5107H889.524V341.764ZM1462.12 14.2745V49.5107H1251.22V178.019H1449.16V213.255H1251.22V341.764H1467.3V377H1210.8V14.2745H1462.12Z" fill="black"/>
<path d="M1494.49 63.6644C1494.49 30.7082 1519.05 6.14652 1552.01 6.14652C1584.96 6.14652 1609.53 30.7082 1609.53 63.6644C1609.53 96.6206 1584.96 120.871 1552.01 120.871C1519.05 120.871 1494.49 96.6206 1494.49 63.6644ZM1509.72 63.6644C1509.72 87.9152 1527.76 105.948 1552.01 105.948C1576.26 105.948 1593.98 87.9152 1593.98 63.6644C1593.98 39.4136 1576.26 21.0701 1552.01 21.0701C1527.76 21.0701 1509.72 39.4136 1509.72 63.6644ZM1531.49 86.6716V39.4136H1555.43C1565.69 39.4136 1572.84 45.6318 1572.84 54.6481C1572.84 60.5554 1567.86 67.0844 1562.27 68.6389L1574.39 86.6716H1558.85L1548.9 69.8826H1545.17V86.6716H1531.49ZM1545.17 60.2445H1552.01C1556.05 60.2445 1558.85 57.7572 1558.85 54.6481C1558.85 51.539 1556.05 49.0518 1552.01 49.0518H1545.17V60.2445Z" fill="black"/>
</g>
<defs>
<clipPath id="clip0_3574_147134">
<rect width="1614" height="390" fill="white"/>
</clipPath>
</defs>
</svg>
