<svg width="2286" height="390" viewBox="0 0 2286 390" fill="none" xmlns="http://www.w3.org/2000/svg">
<g clip-path="url(#clip0_3570_147217)">
<g clip-path="url(#clip1_3570_147217)">
<path d="M207.022 40.7016C113.75 40.7016 44.3139 107.029 44.3139 196.155C44.3139 281.655 120.486 347.464 212.722 350.055L347.967 226.21V213.255H167.641V178.019H361.44V261.964L224.122 387.364C97.6864 387.364 3.37772 305.491 3.37772 196.155C3.37772 87.3378 91.4682 4.42905 207.54 4.42905C268.686 4.42905 318.949 27.7471 347.449 52.1015V98.7377C314.285 64.5378 261.949 40.7016 207.022 40.7016ZM551.035 387.364C462.945 387.364 401.281 323.109 401.281 233.982V14.2745H441.699V233.982C441.699 304.455 484.708 351.091 551.035 351.091C617.362 351.091 660.371 304.455 660.371 233.982V14.2745H700.789V233.982C700.789 323.109 639.126 387.364 551.035 387.364ZM792.503 14.2745V377H752.085V14.2745H792.503ZM848.739 14.2745H968.957C1094.36 14.2745 1167.42 85.265 1167.42 195.119C1167.42 304.973 1094.36 377 968.957 377H848.739V14.2745ZM889.157 341.764H975.175C1065.34 341.764 1126.48 287.873 1126.48 195.637C1126.48 103.401 1065.34 49.5107 975.175 49.5107H889.157V341.764ZM1461.75 14.2745V49.5107H1250.85V178.019H1448.8V213.255H1250.85V341.764H1466.93V377H1210.43V14.2745H1461.75Z" fill="#FF3300"/>
<path d="M1654.7 14.2745H1774.91C1900.31 14.2745 1973.38 85.265 1973.38 195.119C1973.38 304.973 1900.31 377 1774.91 377H1654.7V14.2745ZM1695.11 341.764H1781.13C1871.29 341.764 1932.44 287.873 1932.44 195.637C1932.44 103.401 1871.29 49.5107 1781.13 49.5107H1695.11V341.764ZM2046.81 377H2006.39V14.2745H2157.18C2227.65 14.2745 2275.33 53.6561 2275.33 111.692C2275.33 171.801 2227.14 208.592 2148.37 208.592H2095.52V224.137L2281.54 377H2223.51L2082.04 258.855V173.356H2150.96C2202.78 173.356 2234.39 150.037 2234.39 111.692C2234.39 71.7924 2204.34 49.5107 2151.48 49.5107H2046.81V377Z" fill="#FF3300"/>
</g>
</g>
<defs>
<clipPath id="clip0_3570_147217">
<rect width="2286" height="390" fill="white"/>
</clipPath>
<clipPath id="clip1_3570_147217">
<rect width="2304" height="488" fill="white" transform="translate(-22.5312 -38)"/>
</clipPath>
</defs>
</svg>
