<svg width="2429" height="390" viewBox="0 0 2429 390" fill="none" xmlns="http://www.w3.org/2000/svg">
<g clip-path="url(#clip0_3579_147130)">
<g clip-path="url(#clip1_3579_147130)">
<g clip-path="url(#clip2_3579_147130)">
<g clip-path="url(#clip3_3579_147130)">
<path d="M208.776 51.7016C115.504 51.7016 46.0678 118.029 46.0678 207.155C46.0678 292.655 122.24 358.464 214.476 361.055L349.721 237.21V224.255H169.394V189.019H363.194V272.964L225.876 398.364C99.4403 398.364 5.13162 316.491 5.13162 207.155C5.13162 98.3378 93.2221 15.429 209.294 15.429C270.439 15.429 320.703 38.7471 349.203 63.1015V109.738C316.039 75.5378 263.703 51.7016 208.776 51.7016ZM552.789 398.364C464.698 398.364 403.035 334.109 403.035 244.982V25.2745H443.453V244.982C443.453 315.455 486.462 362.091 552.789 362.091C619.116 362.091 662.125 315.455 662.125 244.982V25.2745H702.543V244.982C702.543 334.109 640.879 398.364 552.789 398.364ZM794.257 25.2745V388H753.839V25.2745H794.257ZM850.493 25.2745H970.71C1096.11 25.2745 1169.17 96.265 1169.17 206.119C1169.17 315.973 1096.11 388 970.71 388H850.493V25.2745ZM890.911 352.764H976.929C1067.09 352.764 1128.24 298.873 1128.24 206.637C1128.24 114.401 1067.09 60.5107 976.929 60.5107H890.911V352.764ZM1463.5 25.2745V60.5107H1252.61V189.019H1450.55V224.255H1252.61V352.764H1468.69V388H1212.19V25.2745H1463.5Z" fill="#FF3300"/>
<g clip-path="url(#clip4_3579_147130)">
<path d="M1495.88 74.6644C1495.88 41.7082 1520.44 17.1465 1553.4 17.1465C1586.35 17.1465 1610.91 41.7082 1610.91 74.6644C1610.91 107.621 1586.35 131.871 1553.4 131.871C1520.44 131.871 1495.88 107.621 1495.88 74.6644ZM1511.11 74.6644C1511.11 98.9152 1529.14 116.948 1553.4 116.948C1577.65 116.948 1595.37 98.9152 1595.37 74.6644C1595.37 50.4136 1577.65 32.0701 1553.4 32.0701C1529.14 32.0701 1511.11 50.4136 1511.11 74.6644ZM1532.88 97.6716V50.4136H1556.82C1567.07 50.4136 1574.23 56.6318 1574.23 65.6481C1574.23 71.5554 1569.25 78.0844 1563.65 79.6389L1575.78 97.6716H1560.23L1550.29 80.8826H1546.56V97.6716H1532.88ZM1546.56 71.2445H1553.4C1557.44 71.2445 1560.23 68.7572 1560.23 65.6481C1560.23 62.539 1557.44 60.0518 1553.4 60.0518H1546.56V71.2445Z" fill="#FF3300"/>
</g>
</g>
</g>
<path d="M1800.61 14.2745H1920.83C2046.23 14.2745 2119.29 85.265 2119.29 195.119C2119.29 304.973 2046.23 377 1920.83 377H1800.61V14.2745ZM1841.03 341.764H1927.05C2017.21 341.764 2078.36 287.873 2078.36 195.637C2078.36 103.401 2017.21 49.5107 1927.05 49.5107H1841.03V341.764ZM2192.73 377H2152.31V14.2745H2303.1C2373.57 14.2745 2421.24 53.6561 2421.24 111.692C2421.24 171.801 2373.05 208.592 2294.29 208.592H2241.44V224.137L2427.46 377H2369.43L2227.96 258.855V173.356H2296.88C2348.7 173.356 2380.31 150.037 2380.31 111.692C2380.31 71.7924 2350.25 49.5107 2297.4 49.5107H2192.73V377Z" fill="#FF3300"/>
</g>
</g>
<defs>
<clipPath id="clip0_3579_147130">
<rect width="2429" height="390" fill="white"/>
</clipPath>
<clipPath id="clip1_3579_147130">
<rect width="2426" height="488" fill="white" transform="translate(1.38672 -38)"/>
</clipPath>
<clipPath id="clip2_3579_147130">
<rect width="1614" height="390" fill="white" transform="translate(1.38672 11)"/>
</clipPath>
<clipPath id="clip3_3579_147130">
<rect width="1644" height="488" fill="white" transform="translate(-20.7773 -27)"/>
</clipPath>
<clipPath id="clip4_3579_147130">
<rect width="146" height="488" fill="white" transform="translate(1477.22 -27)"/>
</clipPath>
</defs>
</svg>
