<svg width="1475" height="390" viewBox="0 0 1475 390" fill="none" xmlns="http://www.w3.org/2000/svg">
<g clip-path="url(#clip0_3584_147217)">
<path d="M207.94 40.7016C114.668 40.7016 45.2319 107.029 45.2319 196.155C45.2319 281.655 121.404 347.464 213.64 350.055L348.885 226.21V213.255H168.559V178.019H362.358V261.964L225.04 387.364C98.6043 387.364 4.29569 305.491 4.29569 196.155C4.29569 87.3378 92.3862 4.42905 208.458 4.42905C269.604 4.42905 319.867 27.7471 348.367 52.1015V98.7377C315.203 64.5378 262.867 40.7016 207.94 40.7016ZM551.953 387.364C463.863 387.364 402.199 323.109 402.199 233.982V14.2745H442.617V233.982C442.617 304.455 485.626 351.091 551.953 351.091C618.28 351.091 661.289 304.455 661.289 233.982V14.2745H701.707V233.982C701.707 323.109 640.044 387.364 551.953 387.364ZM793.421 14.2745V377H753.003V14.2745H793.421ZM849.657 14.2745H969.875C1095.27 14.2745 1168.34 85.265 1168.34 195.119C1168.34 304.973 1095.27 377 969.875 377H849.657V14.2745ZM890.075 341.764H976.093C1066.26 341.764 1127.4 287.873 1127.4 195.637C1127.4 103.401 1066.26 49.5107 976.093 49.5107H890.075V341.764ZM1462.67 14.2745V49.5107H1251.77V178.019H1449.71V213.255H1251.77V341.764H1467.85V377H1211.35V14.2745H1462.67Z" fill="white"/>
</g>
<defs>
<clipPath id="clip0_3584_147217">
<rect width="1475" height="390" fill="white"/>
</clipPath>
</defs>
</svg>
