<svg width="2429" height="390" viewBox="0 0 2429 390" fill="none" xmlns="http://www.w3.org/2000/svg">
<g transform="translate(1509.45, 32.19) scale(0.5) translate(-1553.4, -62.6644)"><path d="M1495.88 62.6644C1495.88 29.7082 1520.44 5.14652 1553.4 5.14652C1586.35 5.14652 1610.91 29.7082 1610.91 62.6644C1610.91 95.6206 1586.35 119.871 1553.4 119.871C1520.44 119.871 1495.88 95.6206 1495.88 62.6644ZM1511.11 62.6644C1511.11 86.9152 1529.14 104.948 1553.4 104.948C1577.65 104.948 1595.37 86.9152 1595.37 62.6644C1595.37 38.4136 1577.65 20.0701 1553.4 20.0701C1529.14 20.0701 1511.11 38.4136 1511.11 62.6644ZM1532.88 85.6716V38.4136H1556.82C1567.07 38.4136 1574.23 44.6318 1574.23 53.6481C1574.23 59.5554 1569.25 66.0844 1563.65 67.6389L1575.78 85.6716H1560.23L1550.29 68.8826H1546.56V85.6716H1532.88ZM1546.56 59.2445H1553.4C1557.44 59.2445 1560.23 56.7572 1560.23 53.6481C1560.23 50.539 1557.44 48.0518 1553.4 48.0518H1546.56V59.2445Z" fill="#FF3300"/></g>
<path d="M208.776 39.7016C115.504 39.7016 46.0678 106.029 46.0678 195.155C46.0678 280.655 122.24 346.464 214.476 349.055L349.721 225.21V212.255H169.394V177.019H363.194V260.964L225.876 386.364C99.4403 386.364 5.13162 304.491 5.13162 195.155C5.13162 86.3378 93.2221 3.42905 209.294 3.42905C270.439 3.42905 320.703 26.7471 349.203 51.1015V97.7377C316.039 63.5378 263.703 39.7016 208.776 39.7016ZM552.789 386.364C464.698 386.364 403.035 322.109 403.035 232.982V13.2745H443.453V232.982C443.453 303.455 486.462 350.091 552.789 350.091C619.116 350.091 662.125 303.455 662.125 232.982V13.2745H702.543V232.982C702.543 322.109 640.879 386.364 552.789 386.364ZM794.257 13.2745V376H753.839V13.2745H794.257ZM850.493 13.2745H970.71C1096.11 13.2745 1169.17 84.265 1169.17 194.119C1169.17 303.973 1096.11 376 970.71 376H850.493V13.2745ZM890.911 340.764H976.929C1067.09 340.764 1128.24 286.873 1128.24 194.637C1128.24 102.401 1067.09 48.5107 976.929 48.5107H890.911V340.764ZM1463.5 13.2745V48.5107H1252.61V177.019H1450.55V212.255H1252.61V340.764H1468.69V376H1212.19V13.2745H1463.5Z" fill="#FF3300"/>
<path d="M1799.61 13.2745H1919.83C2045.23 13.2745 2118.29 84.265 2118.29 194.119C2118.29 303.973 2045.23 376 1919.83 376H1799.61V13.2745ZM1840.03 340.764H1926.05C2016.21 340.764 2077.36 286.873 2077.36 194.637C2077.36 102.401 2016.21 48.5107 1926.05 48.5107H1840.03V340.764ZM2191.73 376H2151.31V13.2745H2302.1C2372.57 13.2745 2420.24 52.6561 2420.24 110.692C2420.24 170.801 2372.05 207.592 2293.29 207.592H2240.44V223.137L2426.46 376H2368.43L2226.96 257.855V172.356H2295.88C2347.7 172.356 2379.31 149.037 2379.31 110.692C2379.31 70.7924 2349.25 48.5107 2296.4 48.5107H2191.73V376Z" fill="#FF3300"/>
</svg>
