<svg width="1456" height="390" viewBox="0 0 1456 390" fill="none" xmlns="http://www.w3.org/2000/svg">
<g clip-path="url(#clip0_3574_147184)">
<g clip-path="url(#clip1_3574_147184)">
<path d="M207.757 40.7016C114.484 40.7016 45.0483 107.029 45.0483 196.155C45.0483 281.655 121.221 347.464 213.457 350.055L348.701 226.21V213.255H168.375V178.019H362.174V261.964L224.856 387.364C98.4207 387.364 4.11209 305.491 4.11209 196.155C4.11209 87.3378 92.2026 4.42905 208.275 4.42905C269.42 4.42905 319.683 27.7471 348.183 52.1015V98.7377C315.02 64.5378 262.684 40.7016 207.757 40.7016ZM551.769 387.364C463.679 387.364 402.016 323.109 402.016 233.982V14.2745H442.434V233.982C442.434 304.455 485.442 351.091 551.769 351.091C618.096 351.091 661.105 304.455 661.105 233.982V14.2745H701.523V233.982C701.523 323.109 639.86 387.364 551.769 387.364ZM793.238 14.2745V377H752.82V14.2745H793.238ZM849.473 14.2745H969.691C1095.09 14.2745 1168.15 85.265 1168.15 195.119C1168.15 304.973 1095.09 377 969.691 377H849.473V14.2745ZM889.891 341.764H975.909C1066.07 341.764 1127.22 287.873 1127.22 195.637C1127.22 103.401 1066.07 49.5107 975.909 49.5107H889.891V341.764ZM1462.49 14.2745V49.5107H1251.59V178.019H1449.53V213.255H1251.59V341.764H1467.67V377H1211.17V14.2745H1462.49Z" fill="#FF3300"/>
</g>
</g>
<defs>
<clipPath id="clip0_3574_147184">
<rect width="1456" height="390" fill="white"/>
</clipPath>
<clipPath id="clip1_3574_147184">
<rect width="1474" height="488" fill="white" transform="translate(-21.7969 -38)"/>
</clipPath>
</defs>
</svg>
