<?xml version="1.0" encoding="utf-8"?>
<!-- Generator: Adobe Illustrator 25.2.0, SVG Export Plug-In . SVG Version: 6.00 Build 0)  -->
<svg version="1.1" id="Layer_1" xmlns="http://www.w3.org/2000/svg" xmlns:xlink="http://www.w3.org/1999/xlink" x="0px" y="0px"
	 viewBox="0 0 223.2 111.6" style="enable-background:new 0 0 223.2 111.6;" xml:space="preserve">
<style type="text/css">
	.st0{fill:none;stroke:#231F20;stroke-width:0.75;stroke-miterlimit:10;}
	.st1{fill:#FF3300;}
</style>
<g>
	<path class="st1" d="M93.3,3.1H81.4c0,46.7-35.8,83.1-81.4,83.1v25.4h93.3v-10.5H3.9v-4.3C54.1,96.7,93.3,55.6,93.3,3.1z"/>
	<path class="st1" d="M198.2,0c-14.4,0-25.1,11.2-25.1,26.2v81.4h-4.6L138,3.1h-27.9v108.5h12.1V7.1h4.6l30.5,104.5h27.9V26.3
		c0-9.5,5-15.5,13-15.5c7.9,0,12.9,6,12.9,15.5v85.2h12.1V26.2C223.2,11.2,212.5,0,198.2,0z"/>
</g>
</svg>
