<?xml version="1.0" encoding="utf-8"?>
<!-- Generator: Adobe Illustrator 25.2.0, SVG Export Plug-In . SVG Version: 6.00 Build 0)  -->
<svg version="1.1" id="Layer_1" xmlns="http://www.w3.org/2000/svg" xmlns:xlink="http://www.w3.org/1999/xlink" x="0px" y="0px"
	 viewBox="0 0 1098 117.3" style="enable-background:new 0 0 1098 117.3;" xml:space="preserve">
<style type="text/css">
	.st0{fill:#000000;}
</style>
<g>
	<path class="st0" d="M4,103.3h91.4v10.8H0v-26c46.6,0,83.2-37.2,83.2-84.9h12.2c0,53.7-40.1,95.7-91.4,95.7V103.3z"/>
	<path class="st0" d="M130.4,114.1h-12.4V3.2h12.4V114.1z"/>
	<path class="st0" d="M162.7,58.6c0,28.5,17.9,47.5,44.7,47.5c23.3,0,41.2-15.8,42.9-38.8h-46.7V56.6h58.8
		c2.4,35.2-20.9,60.7-55.1,60.7c-33.6,0-57-24.1-57-58.6c0-34.2,23.6-58.6,56.6-58.6c26,0,47.7,15.7,52.9,38.2H247
		c-4.3-16.2-20.8-27.1-40.4-27.1C180.6,11.1,162.7,30.4,162.7,58.6z"/>
	<path class="st0" d="M357.8,3.2h12.4v110.9h-12.4V64h-67.7v50.1h-12.4V3.2h12.4v50.1h67.7V3.2z"/>
	<path class="st0" d="M476,3.2v10.8h-39.6v100.2H424V13.9h-39.6V3.2H476z"/>
	<path class="st0" d="M557.2,110V26.8c0-15.4,10.9-26.8,25.7-26.8c14.6,0,25.5,11.4,25.5,26.8v87.3H596V26.9
		c0-9.7-5.1-15.8-13.2-15.8c-8.2,0-13.3,6.2-13.3,15.8v87.2H541L509.8,7.3H505v106.8h-12.4V3.2h28.5L552.4,110H557.2z"/>
	<path class="st0" d="M711.2,114.1l-13.5-38.7h-51.3l-13.5,38.7h-12.7L659.4,3.2h25.4L724,114.1H711.2z M650,64.7h44.1L674.4,7.3
		h-4.8L650,64.7z"/>
	<path class="st0" d="M806.1,3.2v10.8h-39.6v100.2h-12.4V13.9h-39.6V3.2H806.1z"/>
	<path class="st0" d="M908,3.2v10.8h-39.6v100.2H856V13.9h-39.6V3.2H908z"/>
	<path class="st0" d="M999.1,13.9h-64.5v39.3h60.5V64h-60.5v39.3h66.1v10.8h-78.4V3.2h76.9V13.9z"/>
	<path class="st0" d="M1015,114.1V3.2h42.5c25,0,39.5,13,39.5,32.5c0,17-11.1,28.8-27.3,32.3l28.4,46.1h-14.4l-26.9-45.2h-29.3v45.2
		H1015z M1027.3,58.2h32.2c15.4,0,24.9-8.1,24.9-22.2c0-13.9-9.5-22-24.9-22h-32.2V58.2z"/>
</g>
</svg>
