<?xml version="1.0" encoding="UTF-8"?>
<svg id="Layer_1" xmlns="http://www.w3.org/2000/svg" version="1.1" viewBox="0 0 1098 117.3">
  <!-- Generator: Adobe Illustrator 29.8.7, SVG Export Plug-In . SVG Version: 2.1.1 Build 1)  -->
  <defs>
    <style>
      .st0 {
        fill: #fff;
      }
    </style>
  </defs>
  <path class="st0" d="M4,103.3h91.4v10.8H0v-26c46.6,0,83.2-37.2,83.2-84.9h12.2c0,53.7-40.1,95.7-91.4,95.7,0,0,0,4.4,0,4.4Z"/>
  <path class="st0" d="M130.4,114.1h-12.4V3.2h12.4v110.9Z"/>
  <path class="st0" d="M162.7,58.6c0,28.5,17.9,47.5,44.7,47.5s41.2-15.8,42.9-38.8h-46.7v-10.7h58.8c2.4,35.2-20.9,60.7-55.1,60.7s-57-24.1-57-58.6S173.9.1,206.9.1s47.7,15.7,52.9,38.2h-12.8c-4.3-16.2-20.8-27.1-40.4-27.1-26-.1-43.9,19.2-43.9,47.4Z"/>
  <path class="st0" d="M357.8,3.2h12.4v110.9h-12.4v-50.1h-67.7v50.1h-12.4V3.2h12.4v50.1h67.7V3.2Z"/>
  <path class="st0" d="M476,3.2v10.8h-39.6v100.2h-12.4V13.9h-39.6V3.2h91.6Z"/>
  <path class="st0" d="M557.2,110V26.8c0-15.4,10.9-26.8,25.7-26.8s25.5,11.4,25.5,26.8v87.3h-12.4V26.9c0-9.7-5.1-15.8-13.2-15.8s-13.3,6.2-13.3,15.8v87.2h-28.5l-31.2-106.8h-4.8v106.8h-12.4V3.2h28.5l31.3,106.8h4.8Z"/>
  <path class="st0" d="M711.2,114.1l-13.5-38.7h-51.3l-13.5,38.7h-12.7L659.4,3.2h25.4l39.2,110.9h-12.8ZM650,64.7h44.1l-19.7-57.4h-4.8l-19.6,57.4Z"/>
  <path class="st0" d="M806.1,3.2v10.8h-39.6v100.2h-12.4V13.9h-39.6V3.2h91.6Z"/>
  <path class="st0" d="M908,3.2v10.8h-39.6v100.2h-12.4V13.9h-39.6V3.2h91.6Z"/>
  <path class="st0" d="M999.1,13.9h-64.5v39.3h60.5v10.8h-60.5v39.3h66.1v10.8h-78.4V3.2h76.9v10.7h0Z"/>
  <path class="st0" d="M1015,114.1V3.2h42.5c25,0,39.5,13,39.5,32.5s-11.1,28.8-27.3,32.3l28.4,46.1h-14.4l-26.9-45.2h-29.3v45.2s-12.5,0-12.5,0ZM1027.3,58.2h32.2c15.4,0,24.9-8.1,24.9-22.2s-9.5-22-24.9-22h-32.2v44.2Z"/>
</svg>