<svg width="2270" height="390" viewBox="0 0 2270 390" fill="none" xmlns="http://www.w3.org/2000/svg">
<g clip-path="url(#clip0_3584_147201)">
<path d="M140.413 229.319H44.0317V377H3.61376V14.2745H140.413C219.176 14.2745 268.922 56.247 268.922 121.538C268.922 186.828 218.658 229.319 140.413 229.319ZM134.713 49.5107H44.0317V194.083H134.713C195.34 194.083 228.504 167.656 228.504 121.538C228.504 75.4196 195.34 49.5107 134.713 49.5107ZM609.577 377H565.013L488.323 250.564H337.533V377H297.115V14.2745H389.869L609.577 377ZM337.533 215.328H467.077L353.078 27.7471H337.533V215.328ZM747.064 387.364C658.974 387.364 604.565 338.137 604.565 258.337H644.983C644.983 318.446 681.256 351.609 748.101 351.609C808.728 351.609 843.964 325.7 843.964 282.173C843.964 245.382 818.573 226.728 742.401 210.146C644.983 188.901 612.856 158.846 612.856 104.956C612.856 42.2561 661.047 3.91087 740.328 3.91087C825.828 3.91087 876.609 49.5107 876.609 125.165H836.191C836.191 69.2015 803.028 39.6652 738.773 39.6652C683.328 39.6652 652.237 61.947 652.237 101.847C652.237 137.083 676.074 155.219 753.282 172.837C847.591 194.083 883.345 223.101 883.345 277.51C883.345 344.873 830.491 387.364 747.064 387.364ZM1051.19 387.364C963.101 387.364 908.693 338.137 908.693 258.337H949.111C949.111 318.446 985.383 351.609 1052.23 351.609C1112.86 351.609 1148.09 325.7 1148.09 282.173C1148.09 245.382 1122.7 226.728 1046.53 210.146C949.111 188.901 916.983 158.846 916.983 104.956C916.983 42.2561 965.174 3.91087 1044.46 3.91087C1129.96 3.91087 1180.74 49.5107 1180.74 125.165H1140.32C1140.32 69.2015 1107.16 39.6652 1042.9 39.6652C987.456 39.6652 956.365 61.947 956.365 101.847C956.365 137.083 980.201 155.219 1057.41 172.837C1151.72 194.083 1187.47 223.101 1187.47 277.51C1187.47 344.873 1134.62 387.364 1051.19 387.364ZM1534.09 377H1492.12L1448.07 250.564H1280.18L1236.14 377H1194.68L1322.67 14.2745H1405.58L1534.09 377ZM1356.36 27.7471L1292.1 215.328H1436.16L1371.9 27.7471H1356.36ZM1737.11 40.7016C1643.84 40.7016 1574.4 107.029 1574.4 196.155C1574.4 281.655 1650.57 347.464 1742.81 350.055L1878.05 226.21V213.255H1697.73V178.019H1891.53V261.964L1754.21 387.364C1627.77 387.364 1533.46 305.491 1533.46 196.155C1533.46 87.3378 1621.56 4.42905 1737.63 4.42905C1798.77 4.42905 1849.04 27.7471 1877.54 52.1015V98.7377C1844.37 64.5378 1792.04 40.7016 1737.11 40.7016ZM2181.87 14.2745V49.5107H1970.97V178.019H2168.91V213.255H1970.97V341.764H2187.05V377H1930.55V14.2745H2181.87Z" fill="white"/>
<g transform="translate(2227.81, 32.67) scale(0.5) translate(-2271.56, -63.6644)"><path d="M2214.04 63.6644C2214.04 30.7082 2238.6 6.14652 2271.56 6.14652C2304.52 6.14652 2329.08 30.7082 2329.08 63.6644C2329.08 96.6206 2304.52 120.871 2271.56 120.871C2238.6 120.871 2214.04 96.6206 2214.04 63.6644ZM2229.28 63.6644C2229.28 87.9152 2247.31 105.948 2271.56 105.948C2295.81 105.948 2313.53 87.9152 2313.53 63.6644C2313.53 39.4136 2295.81 21.0701 2271.56 21.0701C2247.31 21.0701 2229.28 39.4136 2229.28 63.6644ZM2251.04 86.6716V39.4136H2274.98C2285.24 39.4136 2292.39 45.6318 2292.39 54.6481C2292.39 60.5554 2287.42 67.0844 2281.82 68.6389L2293.94 86.6716H2278.4L2268.45 69.8826H2264.72V86.6716H2251.04ZM2264.72 60.2445H2271.56C2275.6 60.2445 2278.4 57.7572 2278.4 54.6481C2278.4 51.539 2275.6 49.0518 2271.56 49.0518H2264.72V60.2445Z" fill="white"/></g>
</g>
<defs>
<clipPath id="clip0_3584_147201">
<rect width="2270" height="390" fill="white"/>
</clipPath>
</defs>
</svg>
